#N canvas 910 488 823 684 10;
#X obj 27 491 s~ outL-\$1;
#X obj 111 491 s~ outR-\$1;
#X obj 25 186 r~ inL-\$1;
#X obj 110 186 r~ inR-\$1;
#X obj 304 186 r notesIn-\$1;
#X obj 23 112 KontrolModule \$1 empty;
#X obj 306 491 s notesOut-\$1;
#X obj 23 9 r loaddefs-\$1;
#X msg 23 58 loaddefinitions \$1;
#X obj 181 9 r loadbang-\$1;
#X obj 181 76 print loading definiton for \$1;
#X obj 23 34 symbol;
#X obj 181 35 print loaded:empty into \$1, f 12;
#X connect 2 0 0 0;
#X connect 3 0 1 0;
#X connect 4 0 6 0;
#X connect 7 0 11 0;
#X connect 7 0 10 0;
#X connect 8 0 5 0;
#X connect 9 0 12 0;
#X connect 11 0 8 0;
