#N canvas 709 321 792 585 10;
#X obj 123 471 throw~ outL;
#X obj 215 471 throw~ outR;
#X obj 153 407 lmnts~;
#X obj 16 406 print;
#X obj 17 347 r lmnts_param;
#X msg 629 245 bypass \$1;
#X msg 37 40 \; pd dsp 1;
#X obj 37 17 loadbang;
#X msg 382 247 easter_egg \$1;
#X msg 518 252 seed \$1;
#N canvas 739 316 430 305 bowpage 0;
#X msg 47 155 bow_level \$1;
#X msg 172 155 bow_timbre \$1;
#X obj 59 209 s lmnts_param;
#X obj 55 100 / 100;
#X obj 55 51 r l_bow_level;
#X obj 211 101 / 100;
#X obj 191 51 r l_bow_timbre;
#X connect 0 0 2 0;
#X connect 1 0 2 0;
#X connect 3 0 0 0;
#X connect 4 0 3 0;
#X connect 5 0 1 0;
#X connect 6 0 5 0;
#X restore 139 97 pd bowpage;
#N canvas 476 263 631 546 mainpage 0;
#X msg 347 227 contour \$1;
#X obj 158 504 s lmnts_param;
#X msg 248 227 pitch \$1;
#X obj 248 131 / 64;
#X obj 248 179 +;
#X obj 84 327 t b f;
#X obj 87 83 r notes;
#X obj 87 131 unpack f f;
#X obj 87 275 spigot 0;
#X obj 87 227 / 64;
#X msg 130 405 gate \$1;
#X obj 87 179 - 60;
#X obj 130 359 tgl 15 0 empty empty empty 17 7 0 10 -262144 -1 -1 0
1;
#X obj 152 222 > 0;
#X obj 248 83 r l_pitch;
#X obj 352 83 r l_contour;
#X obj 347 179 / 100;
#X connect 0 0 1 0;
#X connect 2 0 1 0;
#X connect 3 0 4 0;
#X connect 4 0 2 0;
#X connect 5 0 4 0;
#X connect 5 1 4 1;
#X connect 6 0 7 0;
#X connect 7 0 11 0;
#X connect 7 1 8 1;
#X connect 7 1 13 0;
#X connect 8 0 5 0;
#X connect 9 0 8 0;
#X connect 10 0 1 0;
#X connect 11 0 9 0;
#X connect 12 0 10 0;
#X connect 13 0 12 0;
#X connect 14 0 3 0;
#X connect 15 0 16 0;
#X connect 16 0 0 0;
#X restore 39 97 pd mainpage;
#N canvas 703 268 654 344 blowpage 0;
#X obj 225 205 s lmnts_param;
#X msg 92 111 blow_level \$1;
#X msg 415 111 blow_flow \$1;
#X msg 270 111 blow_timbre \$1;
#X obj 92 69 / 100;
#X obj 270 69 / 100;
#X obj 415 69 / 100;
#X obj 92 27 r l_blow_level;
#X obj 270 27 r l_blow_timbre;
#X obj 415 27 r l_blow_flow;
#X connect 1 0 0 0;
#X connect 2 0 0 0;
#X connect 3 0 0 0;
#X connect 4 0 1 0;
#X connect 5 0 3 0;
#X connect 6 0 2 0;
#X connect 7 0 4 0;
#X connect 8 0 5 0;
#X connect 9 0 6 0;
#X restore 237 97 pd blowpage;
#N canvas 234 284 528 356 strikepage 0;
#X obj 133 248 s lmnts_param;
#X msg 30 124 strike_level \$1;
#X msg 334 123 strike_mallet \$1;
#X msg 178 124 strike_timbre \$1;
#X obj 30 44 r l_strike_level;
#X obj 30 84 / 100;
#X obj 178 44 r l_strike_timbre;
#X obj 178 84 / 100;
#X obj 335 41 r l_strike_mallet;
#X obj 335 80 / 100;
#X connect 1 0 0 0;
#X connect 2 0 0 0;
#X connect 3 0 0 0;
#X connect 4 0 5 0;
#X connect 5 0 1 0;
#X connect 6 0 7 0;
#X connect 7 0 3 0;
#X connect 8 0 9 0;
#X connect 9 0 2 0;
#X restore 335 97 pd strikepage;
#X obj 121 347 r~ inL;
#X obj 193 347 r~ inR;
#X obj 380 328 s lmnts_param;
#N canvas 225 398 686 325 resonpage 0;
#X obj 277 249 s lmnts_param;
#X msg 67 143 space \$1;
#X msg 215 143 geometry \$1;
#X msg 328 143 brightness \$1;
#X msg 451 143 damping \$1;
#X obj 68 34 r l_space;
#X obj 68 82 / 100;
#X obj 215 34 r l_geometry;
#X obj 215 82 / 100;
#X obj 333 82 / 100;
#X obj 333 34 r l_brightness;
#X obj 462 34 r l_damping;
#X obj 462 82 / 100;
#X connect 1 0 0 0;
#X connect 2 0 0 0;
#X connect 3 0 0 0;
#X connect 4 0 0 0;
#X connect 5 0 6 0;
#X connect 6 0 1 0;
#X connect 7 0 8 0;
#X connect 8 0 2 0;
#X connect 9 0 3 0;
#X connect 10 0 9 0;
#X connect 11 0 12 0;
#X connect 12 0 4 0;
#X restore 31 180 pd resonpage;
#N canvas 381 401 644 340 advpage 0;
#X obj 205 240 s lmnts_param;
#X msg 434 148 mod_depth \$1;
#X msg 161 90 resonator \$1;
#X msg 36 148 position \$1;
#X obj 286 90 / 64;
#X obj 287 123 +;
#X msg 287 156 mod_pitch \$1;
#X text 163 122 disabled;
#X obj 36 90 / 100;
#X obj 36 30 r l_position;
#X obj 161 30 r l_resonator;
#X obj 286 30 r l_modpitch;
#X obj 434 90 / 100;
#X obj 434 30 r l_moddepth;
#X connect 1 0 0 0;
#X connect 3 0 0 0;
#X connect 4 0 5 0;
#X connect 5 0 6 0;
#X connect 6 0 0 0;
#X connect 8 0 3 0;
#X connect 9 0 8 0;
#X connect 10 0 2 0;
#X connect 11 0 4 0;
#X connect 12 0 1 0;
#X connect 13 0 12 0;
#X restore 159 181 pd advpage;
#X obj 383 190 r l_easter_egg;
#X obj 520 190 r l_seed;
#X obj 630 189 r l_bypass;
#N canvas 760 226 816 297 rack 0;
#X obj 38 51 r knob1Raw;
#X msg 38 87 knob1Raw \$1;
#X obj 120 50 r knob2Raw;
#X obj 204 49 r knob3Raw;
#X obj 293 49 r knob4Raw;
#X msg 293 85 knob4Raw \$1;
#X msg 204 85 knob3Raw \$1;
#X msg 120 86 knob2Raw \$1;
#X obj 381 49 r enc;
#X msg 381 85 enc \$1;
#X msg 470 85 encbut \$1;
#X obj 470 49 r encbut;
#X obj 579 48 ctlin;
#X obj 579 86 pack f f;
#X msg 579 109 midiCC \$2 \$1;
#X obj 73 170 KontrolRack 8000 9000;
#X connect 0 0 1 0;
#X connect 1 0 15 0;
#X connect 2 0 7 0;
#X connect 3 0 6 0;
#X connect 4 0 5 0;
#X connect 5 0 15 0;
#X connect 6 0 15 0;
#X connect 7 0 15 0;
#X connect 8 0 9 0;
#X connect 9 0 15 0;
#X connect 10 0 15 0;
#X connect 11 0 10 0;
#X connect 12 0 13 0;
#X connect 12 1 13 1;
#X connect 13 0 14 0;
#X connect 14 0 15 0;
#X restore 109 18 pd rack;
#X obj 396 537 KontrolModule elements lmnts;
#X obj 470 408 loadbang;
#X obj 470 434 t b b;
#X msg 356 482 loadpreset Default;
#X msg 492 482 loadsettings localhost:9000;
#X connect 2 0 0 0;
#X connect 2 1 1 0;
#X connect 4 0 2 0;
#X connect 4 0 3 0;
#X connect 5 0 16 0;
#X connect 7 0 6 0;
#X connect 8 0 16 0;
#X connect 9 0 16 0;
#X connect 14 0 2 0;
#X connect 15 0 2 1;
#X connect 19 0 8 0;
#X connect 20 0 9 0;
#X connect 21 0 5 0;
#X connect 24 0 25 0;
#X connect 25 0 26 0;
#X connect 25 1 27 0;
#X connect 26 0 23 0;
#X connect 27 0 23 0;
