#N canvas 429 291 1052 834 10;
#X obj 199 696 throw~ outL;
#X obj 289 696 throw~ outR;
#X obj 198 87 r~ inL;
#X obj 289 87 r~ inR;
#X obj 378 87 r notes;
#N canvas 302 457 1338 779 rack 1;
#X obj 234 137 r knob1Raw;
#X msg 234 173 knob1Raw \$1;
#X obj 316 136 r knob2Raw;
#X obj 400 135 r knob3Raw;
#X obj 489 135 r knob4Raw;
#X msg 489 171 knob4Raw \$1;
#X msg 400 171 knob3Raw \$1;
#X msg 316 172 knob2Raw \$1;
#X obj 577 135 r enc;
#X msg 577 171 enc \$1;
#X msg 666 171 encbut \$1;
#X obj 666 135 r encbut;
#X obj 775 134 ctlin;
#X obj 775 172 pack f f;
#X msg 775 195 midiCC \$2 \$1;
#X obj 168 327 KontrolRack 8000 9000;
#X obj 44 29 loadbang;
#X msg 44 87 loadpreset Default;
#X obj 897 164 routeOSC /key;
#X obj 897 134 r oscIn;
#X msg 897 194 key \$1 \$2;
#X obj 339 470 bng 15 250 50 0 empty empty empty 17 7 0 10 -262144
-1 -1;
#X msg 339 509 loadmodule m1 modules/rngs;
#X obj 584 472 bng 15 250 50 0 empty empty empty 17 7 0 10 -262144
-1 -1;
#X msg 584 511 loadmodule m1 modules/clds;
#X obj 352 665 bng 15 250 50 0 empty empty empty 17 7 0 10 -262144
-1 -1;
#X msg 184 87 loadsettings dynm;
#X obj 563 665 bng 15 250 50 0 empty empty empty 17 7 0 10 -262144
-1 -1;
#X obj 760 665 bng 15 250 50 0 empty empty empty 17 7 0 10 -262144
-1 -1;
#X msg 760 704 loadmodule m4 modules/empty;
#X msg 352 704 loadmodule m2 modules/empty;
#X msg 563 704 loadmodule m3 modules/empty;
#X msg 13 231 savesettings dynm;
#X msg 12 198 updatepreset Default;
#X obj 349 595 bng 15 250 50 0 empty empty empty 17 7 0 10 -262144
-1 -1;
#X msg 349 634 loadmodule m2 modules/clds;
#X obj 44 59 t b b b;
#X obj 332 87 s rackloaded;
#X obj 563 594 bng 15 250 50 0 empty empty empty 17 7 0 10 -262144
-1 -1;
#X msg 563 633 loadmodule m3 modules/rngs;
#X obj 764 474 bng 15 250 50 0 empty empty empty 17 7 0 10 -262144
-1 -1;
#X msg 764 513 loadmodule m1 modules/brds;
#X connect 0 0 1 0;
#X connect 1 0 15 0;
#X connect 2 0 7 0;
#X connect 3 0 6 0;
#X connect 4 0 5 0;
#X connect 5 0 15 0;
#X connect 6 0 15 0;
#X connect 7 0 15 0;
#X connect 8 0 9 0;
#X connect 9 0 15 0;
#X connect 10 0 15 0;
#X connect 11 0 10 0;
#X connect 12 0 13 0;
#X connect 12 1 13 1;
#X connect 13 0 14 0;
#X connect 14 0 15 0;
#X connect 16 0 36 0;
#X connect 17 0 15 0;
#X connect 18 0 20 0;
#X connect 19 0 18 0;
#X connect 20 0 15 0;
#X connect 21 0 22 0;
#X connect 22 0 15 0;
#X connect 23 0 24 0;
#X connect 24 0 15 0;
#X connect 25 0 30 0;
#X connect 26 0 15 0;
#X connect 27 0 31 0;
#X connect 28 0 29 0;
#X connect 29 0 15 0;
#X connect 30 0 15 0;
#X connect 31 0 15 0;
#X connect 32 0 15 0;
#X connect 33 0 15 0;
#X connect 34 0 35 0;
#X connect 35 0 15 0;
#X connect 36 0 17 0;
#X connect 36 1 26 0;
#X connect 36 2 37 0;
#X connect 38 0 39 0;
#X connect 39 0 15 0;
#X connect 40 0 41 0;
#X connect 41 0 15 0;
#X restore 50 9 pd rack;
#X obj 378 696 noteout 1;
#X obj 378 656 unpack 0 0;
#X obj 198 190 s~ inL-m1;
#X obj 289 190 s~ inR-m1;
#X obj 289 223 r~ outR-m1;
#X obj 198 218 r~ outL-m1;
#X obj 378 218 r notesOut-m1;
#X obj 378 190 s notesIn-m1;
#X obj 289 289 s~ inR-m2;
#X obj 198 289 s~ inL-m2;
#X obj 378 289 s notesIn-m2;
#X obj 198 317 r~ outL-m2;
#X obj 289 317 r~ outR-m2;
#X obj 378 317 r notesOut-m2;
#X obj 198 386 s~ inL-m3;
#X obj 289 386 s~ inR-m3;
#X obj 378 386 s notesIn-m3;
#X obj 378 414 r notesOut-m3;
#X obj 289 414 r~ outR-m3;
#X obj 198 414 r~ outL-m3;
#X obj 198 485 s~ inL-m4;
#X obj 289 485 s~ inR-m4;
#X obj 378 485 s notesIn-m4;
#X text 48 51 module slots;
#X obj 198 513 r~ outL-m4;
#X obj 289 513 r~ outR-m4;
#X obj 378 512 r notesOut-m4;
#X text 541 81 currently modules are using s~/r~ for audio \, this
may move throw~/catch~ \, if we move to a bus topology \, or i might
still keep the modules as s/r and use throw/catch in routing matrix
- TBA;
#X text 194 11 modular rack v1;
#X text 196 51 Simplistic linear routing - for now, f 43;
#N canvas 1499 610 794 264 m1 0;
#X obj 10 10 r~ inL-m1;
#X obj 110 10 r~ inR-m1;
#X obj 10 60 modules/brds/module m1;
#X obj 10 110 s~ outL-m1;
#X obj 110 110 s~ outR-m1;
#X obj 400 1 r rackloaded;
#X msg 400 60 modules/brds/brds-module.json;
#X obj 400 110 send loaddefs-m1;
#X connect 0 0 2 0;
#X connect 1 0 2 1;
#X connect 2 0 3 0;
#X connect 2 1 4 0;
#X connect 5 0 6 0;
#X connect 6 0 7 0;
#X restore 51 79 pd m1;
#N canvas 1285 549 450 300 m2 0;
#X obj 10 10 r~ inL-m2;
#X obj 110 10 r~ inR-m2;
#X obj 10 60 modules/empty/module m2;
#X obj 10 110 s~ outL-m2;
#X obj 110 110 s~ outR-m2;
#X obj 400 1 r rackloaded;
#X msg 400 60 modules/empty/empty-module.json;
#X obj 400 110 send loaddefs-m2;
#X connect 0 0 2 0;
#X connect 1 0 2 1;
#X connect 2 0 3 0;
#X connect 2 1 4 0;
#X connect 5 0 6 0;
#X connect 6 0 7 0;
#X restore 51 109 pd m2;
#N canvas 1285 549 450 300 m3 0;
#X obj 10 10 r~ inL-m3;
#X obj 110 10 r~ inR-m3;
#X obj 10 60 modules/empty/module m3;
#X obj 10 110 s~ outL-m3;
#X obj 110 110 s~ outR-m3;
#X obj 400 1 r rackloaded;
#X msg 400 60 modules/empty/empty-module.json;
#X obj 400 110 send loaddefs-m3;
#X connect 0 0 2 0;
#X connect 1 0 2 1;
#X connect 2 0 3 0;
#X connect 2 1 4 0;
#X connect 5 0 6 0;
#X connect 6 0 7 0;
#X restore 51 139 pd m3;
#N canvas 1285 549 450 300 m4 0;
#X obj 10 10 r~ inL-m4;
#X obj 110 10 r~ inR-m4;
#X obj 10 60 modules/empty/module m4;
#X obj 10 110 s~ outL-m4;
#X obj 110 110 s~ outR-m4;
#X obj 400 1 r rackloaded;
#X msg 400 60 modules/empty/empty-module.json;
#X obj 400 110 send loaddefs-m4;
#X connect 0 0 2 0;
#X connect 1 0 2 1;
#X connect 2 0 3 0;
#X connect 2 1 4 0;
#X connect 5 0 6 0;
#X connect 6 0 7 0;
#X restore 51 168 pd m4;
#X connect 2 0 8 0;
#X connect 3 0 9 0;
#X connect 4 0 13 0;
#X connect 7 0 6 0;
#X connect 7 1 6 1;
#X connect 10 0 14 0;
#X connect 11 0 15 0;
#X connect 12 0 16 0;
#X connect 17 0 20 0;
#X connect 18 0 21 0;
#X connect 19 0 22 0;
#X connect 23 0 28 0;
#X connect 24 0 27 0;
#X connect 25 0 26 0;
#X connect 30 0 0 0;
#X connect 31 0 1 0;
#X connect 32 0 7 0;
