#N canvas 345 361 1481 712 10;
#X obj 646 541 bob~;
#X obj 644 445 *~;
#X obj 650 124 unpack 0 0;
#X obj 852 94 r vca-attack;
#X obj 851 118 r vca-decay;
#X obj 849 144 r vca-sustain;
#X obj 848 173 r vca-release;
#X obj 862 494 sig~;
#X obj 728 294 adsr 1 10 100 50 500;
#X obj 906 292 adsr 1 10 100 50 500;
#X obj 684 503 +~ 100;
#X obj 906 335 *~;
#X obj 717 333 *~;
#X obj 901 408 r cutoff;
#X obj 901 430 lop~ 5;
#X obj 904 360 *~;
#X obj 985 468 r reson;
#X obj 503 125 r transpose;
#X obj 652 92 inlet;
#X obj 646 586 outlet~;
#X obj 549 165 + 12;
#X obj 603 359 brds~;
#X obj 409 127 r osc-shape;
#X msg 408 160 shape \$1;
#X obj 323 126 r osc-colour;
#X obj 238 91 r osc-timbre;
#X msg 323 161 colour \$1;
#X msg 236 159 timbre \$1;
#X obj 1099 206 *;
#X obj 1098 132 unpack f f f f;
#X obj 1152 256 *;
#X obj 1124 236 *;
#X obj 1178 277 *;
#X obj 1095 27 r vcf-env;
#X obj 1095 56 select 0 1 2 3 4;
#X msg 1345 84 0.3 1 0.3 1;
#X msg 1343 104 0.3 0.3 0.3 0.3;
#X msg 1342 152 1 0.8 0.2 0.5;
#X msg 1343 59 0.01 1 0.5 1;
#X msg 1344 127 0.01 1 0.2 0.3;
#X msg 620 332 pitch \$1;
#X obj 632 209 * 128;
#X obj 996 314 r vcf-env-amt;
#X obj 774 472 +~;
#X obj 980 341 lop~ 5;
#X obj 817 415 *~ 15000;
#X msg 1344 39 0.01 1 0 1;
#X obj 633 187 - 63;
#X obj 632 237 + 8252;
#X obj 57 37 inlet tch;
#X obj 57 79 unpack f f f f;
#X obj 96 166 sig~;
#X obj 96 209 lop~ 50;
#X text 152 141 timbre;
#X text 71 136 pressure;
#X text 8 137 pitch;
#X obj 649 402 +~;
#X obj 239 119 + 0;
#X obj 145 252 t b f;
#X obj 146 191 expr ($f1) / 4;
#X connect 0 0 19 0;
#X connect 1 0 0 0;
#X connect 2 0 20 0;
#X connect 2 1 8 0;
#X connect 2 1 9 0;
#X connect 3 0 8 2;
#X connect 3 0 28 1;
#X connect 4 0 8 3;
#X connect 4 0 31 1;
#X connect 5 0 8 4;
#X connect 5 0 30 1;
#X connect 6 0 8 5;
#X connect 6 0 32 1;
#X connect 7 0 0 2;
#X connect 8 0 12 1;
#X connect 8 0 12 0;
#X connect 9 0 11 1;
#X connect 9 0 11 0;
#X connect 10 0 0 1;
#X connect 11 0 15 0;
#X connect 12 0 56 1;
#X connect 13 0 14 0;
#X connect 14 0 43 1;
#X connect 15 0 45 0;
#X connect 16 0 7 0;
#X connect 17 0 20 1;
#X connect 18 0 2 0;
#X connect 20 0 47 0;
#X connect 21 0 1 0;
#X connect 22 0 23 0;
#X connect 23 0 21 0;
#X connect 24 0 26 0;
#X connect 25 0 57 0;
#X connect 26 0 21 0;
#X connect 27 0 21 0;
#X connect 28 0 9 2;
#X connect 29 0 28 0;
#X connect 29 1 31 0;
#X connect 29 2 30 0;
#X connect 29 3 32 0;
#X connect 30 0 9 4;
#X connect 31 0 9 3;
#X connect 32 0 9 5;
#X connect 33 0 34 0;
#X connect 34 0 46 0;
#X connect 34 1 38 0;
#X connect 34 2 35 0;
#X connect 34 3 36 0;
#X connect 34 4 39 0;
#X connect 34 5 37 0;
#X connect 35 0 29 0;
#X connect 36 0 29 0;
#X connect 37 0 29 0;
#X connect 38 0 29 0;
#X connect 39 0 29 0;
#X connect 40 0 21 0;
#X connect 41 0 48 0;
#X connect 42 0 44 0;
#X connect 43 0 10 0;
#X connect 44 0 15 1;
#X connect 45 0 43 0;
#X connect 46 0 29 0;
#X connect 47 0 41 0;
#X connect 48 0 40 0;
#X connect 49 0 50 0;
#X connect 50 1 59 0;
#X connect 50 2 51 0;
#X connect 50 3 20 0;
#X connect 51 0 52 0;
#X connect 52 0 56 0;
#X connect 56 0 1 1;
#X connect 57 0 27 0;
#X connect 58 0 57 0;
#X connect 58 1 57 1;
#X connect 59 0 58 0;
