#N canvas 2182 359 1572 758 10;
#X obj 164 693 throw~ outL;
#X obj 344 691 throw~ outR;
#X obj 246 496 *~ 0.3;
#X obj 279 397 voice, f 11;
#X obj 415 284 pack 0 0 0;
#X obj 415 320 route 1 2 3 4;
#X obj 423 204 unpack 0 0;
#X obj 415 124 r notes;
#X obj 569 126 r notes_seq;
#X obj 475 125 r zero_notes;
#X obj 416 228 - 24;
#X obj 667 126 sequencer2;
#X obj 257 579 rngs_reverb~;
#X msg 746 509 diffusion \$1;
#X msg 918 510 time \$1;
#X msg 833 510 lp \$1;
#X obj 689 439 r r_amt;
#X obj 750 439 r r_diff;
#X obj 813 439 r r_cutoff;
#X obj 918 439 r r_time;
#X obj 684 477 / 100;
#X obj 813 461 / 100;
#X obj 750 461 / 100;
#X obj 918 461 / 100;
#X obj 415 260 poly 4 1;
#N canvas 680 234 1529 830 rack 0;
#X obj 219 453 r seq-display;
#X obj 213 538 list;
#X obj 219 478 t b a;
#X obj 214 507 f;
#X obj 213 566 route 1 2 3 4;
#X obj 234 603 s screenLine5;
#X text 123 400 put the sequencer messages;
#X text 124 415 on all pages except menu;
#X obj 292 186 r knob1Raw;
#X msg 292 222 knob1Raw \$1;
#X obj 298 60 hsl 128 15 0 1024 0 0 knob1Raw empty knob1 -2 -8 0 10
-262144 -1 -1 0 1;
#X obj 296 92 hsl 128 15 0 1024 0 0 knob3Raw empty knob3 -2 -8 0 10
-262144 -1 -1 0 1;
#X obj 451 59 hsl 128 15 0 1024 0 0 knob2Raw empty knob2 -2 -8 0 10
-262144 -1 -1 0 1;
#X obj 451 93 hsl 128 15 0 1024 0 0 knob4Raw empty knob4 -2 -8 0 10
-262144 -1 -1 0 1;
#X obj 374 185 r knob2Raw;
#X obj 458 184 r knob3Raw;
#X obj 547 184 r knob4Raw;
#X msg 547 220 knob4Raw \$1;
#X msg 458 220 knob3Raw \$1;
#X msg 374 221 knob2Raw \$1;
#X obj 635 184 r enc;
#X msg 635 220 enc \$1;
#X msg 724 220 encbut \$1;
#X obj 724 184 r encbut;
#X obj 458 458 r seq-display;
#X obj 473 608 s screenLine5;
#X obj 833 183 ctlin;
#X obj 833 221 pack f f;
#X msg 833 244 midiCC \$2 \$1;
#X obj 327 305 KontrolRack 8000 9000;
#X connect 0 0 2 0;
#X connect 1 0 4 0;
#X connect 2 0 3 0;
#X connect 2 1 1 1;
#X connect 3 0 1 0;
#X connect 4 0 5 0;
#X connect 4 1 5 0;
#X connect 4 2 5 0;
#X connect 4 3 5 0;
#X connect 8 0 9 0;
#X connect 9 0 29 0;
#X connect 14 0 19 0;
#X connect 15 0 18 0;
#X connect 16 0 17 0;
#X connect 17 0 29 0;
#X connect 18 0 29 0;
#X connect 19 0 29 0;
#X connect 20 0 21 0;
#X connect 21 0 29 0;
#X connect 22 0 29 0;
#X connect 23 0 22 0;
#X connect 24 0 25 0;
#X connect 26 0 27 0;
#X connect 26 1 27 1;
#X connect 27 0 28 0;
#X connect 28 0 29 0;
#X restore 22 11 pd rack;
#X obj 633 687 KontrolModule braids brds;
#X obj 736 583 loadbang;
#X obj 736 614 t b b;
#X msg 591 649 loadpreset Default;
#X msg 736 645 loadsettings braids;
#X obj 416 34 loadbang;
#X obj 416 100 s midiCh;
#X msg 416 67 1;
#X text 416 5 force non-mpe to channel 1;
#X obj 827 56 notein;
#N canvas 2528 353 735 688 mpeselectnote 0;
#X obj 168 135 inlet;
#X obj 154 218 unpack 0 0 0;
#X obj 224 349 expr $i1 > 0 && $i1 <=4;
#X obj 97 374 int;
#X obj 97 402 pack 0 0 0;
#X obj 97 346 t b i;
#X obj 191 472 spigot 0;
#X obj 216 576 outlet;
#X obj 223 270 - 1;
#X connect 0 0 1 0;
#X connect 1 0 5 0;
#X connect 1 1 4 2;
#X connect 1 2 8 0;
#X connect 2 0 6 1;
#X connect 3 0 4 0;
#X connect 4 0 6 0;
#X connect 5 0 3 0;
#X connect 5 1 4 1;
#X connect 6 0 7 0;
#X connect 8 0 2 0;
#X connect 8 0 3 1;
#X restore 827 142 pd mpeselectnote;
#X obj 827 99 pack 0 0 0;
#X obj 965 56 ctlin 74;
#N canvas 2528 353 735 688 mpeselectval 0;
#X obj 168 135 inlet;
#X obj 224 346 expr $i1 > 0 && $i1 <=4;
#X obj 97 374 int;
#X obj 97 346 t b i;
#X obj 191 472 spigot 0;
#X obj 191 500 outlet;
#X obj 223 270 - 1;
#X obj 154 218 unpack 0 0;
#X obj 97 402 pack 0 0;
#X connect 0 0 7 0;
#X connect 1 0 4 1;
#X connect 2 0 8 0;
#X connect 3 0 2 0;
#X connect 3 1 8 1;
#X connect 4 0 5 0;
#X connect 6 0 1 0;
#X connect 6 0 2 1;
#X connect 7 0 3 0;
#X connect 7 1 6 0;
#X connect 8 0 4 0;
#X restore 965 142 pd mpeselectval;
#X obj 965 99 pack 0 0;
#N canvas 2528 353 735 688 mpeselectval 0;
#X obj 168 135 inlet;
#X obj 224 346 expr $i1 > 0 && $i1 <=4;
#X obj 97 374 int;
#X obj 97 346 t b i;
#X obj 191 472 spigot 0;
#X obj 191 500 outlet;
#X obj 223 270 - 1;
#X obj 154 218 unpack 0 0;
#X obj 97 402 pack 0 0;
#X connect 0 0 7 0;
#X connect 1 0 4 1;
#X connect 2 0 8 0;
#X connect 3 0 2 0;
#X connect 3 1 8 1;
#X connect 4 0 5 0;
#X connect 6 0 1 0;
#X connect 6 0 2 1;
#X connect 7 0 3 0;
#X connect 7 1 6 0;
#X connect 8 0 4 0;
#X restore 1086 140 pd mpeselectval;
#X obj 1086 97 pack 0 0;
#N canvas 2528 353 735 688 mpeselectval 0;
#X obj 168 135 inlet;
#X obj 224 346 expr $i1 > 0 && $i1 <=4;
#X obj 97 374 int;
#X obj 97 346 t b i;
#X obj 191 472 spigot 0;
#X obj 191 500 outlet;
#X obj 223 270 - 1;
#X obj 154 218 unpack 0 0;
#X obj 97 402 pack 0 0;
#X connect 0 0 7 0;
#X connect 1 0 4 1;
#X connect 2 0 8 0;
#X connect 3 0 2 0;
#X connect 3 1 8 1;
#X connect 4 0 5 0;
#X connect 6 0 1 0;
#X connect 6 0 2 1;
#X connect 7 0 3 0;
#X connect 7 1 6 0;
#X connect 8 0 4 0;
#X restore 1196 140 pd mpeselectval;
#X obj 1192 98 pack 0 0;
#X obj 1086 54 touchin;
#X obj 1192 55 bendin;
#X obj 964 174 route 1 2 3 4;
#X obj 1086 173 route 1 2 3 4;
#X obj 1196 176 route 1 2 3 4;
#X obj 410 396 voice, f 11;
#X obj 548 397 voice, f 11;
#X obj 687 397 voice, f 11;
#X floatatom 1261 381 5 0 0 0 - - -, f 5;
#X obj 1261 355 route 1 2 3 4;
#X floatatom 1261 404 5 0 0 0 - - -, f 5;
#X floatatom 1261 427 5 0 0 0 - - -, f 5;
#X floatatom 1261 450 5 0 0 0 - - -, f 5;
#X floatatom 1354 381 5 0 0 0 - - -, f 5;
#X obj 1354 354 route 1 2 3 4;
#X floatatom 1354 404 5 0 0 0 - - -, f 5;
#X floatatom 1354 427 5 0 0 0 - - -, f 5;
#X floatatom 1354 450 5 0 0 0 - - -, f 5;
#X floatatom 1441 381 5 0 0 0 - - -, f 5;
#X obj 1441 354 route 1 2 3 4;
#X floatatom 1441 404 5 0 0 0 - - -, f 5;
#X floatatom 1441 427 5 0 0 0 - - -, f 5;
#X floatatom 1441 450 5 0 0 0 - - -, f 5;
#X floatatom 1128 381 5 0 0 0 - - -, f 5;
#X floatatom 1128 404 5 0 0 0 - - -, f 5;
#X floatatom 1128 427 5 0 0 0 - - -, f 5;
#X floatatom 1128 450 5 0 0 0 - - -, f 5;
#X floatatom 1179 381 5 0 0 0 - - -, f 5;
#X floatatom 1179 404 5 0 0 0 - - -, f 5;
#X floatatom 1179 427 5 0 0 0 - - -, f 5;
#X floatatom 1179 450 5 0 0 0 - - -, f 5;
#X obj 1037 381 unpack 0 0;
#X obj 1037 407 unpack 0 0;
#X obj 1037 433 unpack 0 0;
#X obj 1037 459 unpack 0 0;
#X obj 1037 350 route 1 2 3 4;
#X connect 2 0 12 0;
#X connect 2 0 12 1;
#X connect 3 0 2 0;
#X connect 4 0 5 0;
#X connect 5 0 3 0;
#X connect 5 1 50 0;
#X connect 5 2 51 0;
#X connect 5 3 52 0;
#X connect 6 0 10 0;
#X connect 6 1 24 1;
#X connect 7 0 6 0;
#X connect 8 0 6 0;
#X connect 9 0 6 0;
#X connect 10 0 24 0;
#X connect 12 0 0 0;
#X connect 12 1 1 0;
#X connect 13 0 12 0;
#X connect 14 0 12 0;
#X connect 15 0 12 0;
#X connect 16 0 20 0;
#X connect 17 0 22 0;
#X connect 18 0 21 0;
#X connect 19 0 23 0;
#X connect 20 0 12 2;
#X connect 21 0 15 0;
#X connect 22 0 13 0;
#X connect 23 0 14 0;
#X connect 24 0 4 0;
#X connect 24 1 4 1;
#X connect 24 2 4 2;
#X connect 27 0 28 0;
#X connect 28 0 29 0;
#X connect 28 1 30 0;
#X connect 29 0 26 0;
#X connect 30 0 26 0;
#X connect 31 0 33 0;
#X connect 33 0 32 0;
#X connect 35 0 37 0;
#X connect 35 1 37 1;
#X connect 35 2 37 2;
#X connect 36 0 5 0;
#X connect 36 0 80 0;
#X connect 37 0 36 0;
#X connect 38 0 40 0;
#X connect 38 1 40 1;
#X connect 39 0 47 0;
#X connect 39 0 54 0;
#X connect 40 0 39 0;
#X connect 41 0 48 0;
#X connect 41 0 59 0;
#X connect 42 0 41 0;
#X connect 43 0 49 0;
#X connect 43 0 64 0;
#X connect 44 0 43 0;
#X connect 45 0 42 0;
#X connect 45 1 42 1;
#X connect 46 0 44 0;
#X connect 46 1 44 1;
#X connect 47 0 3 1;
#X connect 47 1 50 1;
#X connect 47 2 51 1;
#X connect 47 3 52 1;
#X connect 48 0 3 2;
#X connect 48 1 50 2;
#X connect 48 2 51 2;
#X connect 48 3 52 2;
#X connect 49 0 3 3;
#X connect 49 1 50 3;
#X connect 49 2 51 3;
#X connect 49 3 52 3;
#X connect 50 0 2 0;
#X connect 51 0 2 0;
#X connect 52 0 2 0;
#X connect 54 0 53 0;
#X connect 54 1 55 0;
#X connect 54 2 56 0;
#X connect 54 3 57 0;
#X connect 59 0 58 0;
#X connect 59 1 60 0;
#X connect 59 2 61 0;
#X connect 59 3 62 0;
#X connect 64 0 63 0;
#X connect 64 1 65 0;
#X connect 64 2 66 0;
#X connect 64 3 67 0;
#X connect 76 0 68 0;
#X connect 76 1 72 0;
#X connect 77 0 69 0;
#X connect 77 1 73 0;
#X connect 78 1 74 0;
#X connect 79 0 71 0;
#X connect 79 1 75 0;
#X connect 80 0 76 0;
#X connect 80 1 77 0;
#X connect 80 2 78 0;
#X connect 80 3 79 0;
