#N canvas 2316 183 1812 725 10;
#X obj 725 535 bob~;
#X obj 723 439 *~;
#X obj 726 117 unpack 0 0;
#X obj 941 488 sig~;
#X obj 807 288 adsr 1 10 100 50 500;
#X obj 736 494 +~ 100;
#X obj 796 327 *~;
#X obj 938 426 lop~ 5;
#X obj 725 580 outlet~;
#X obj 695 216 + 12;
#X obj 682 353 brds~;
#X msg 487 154 shape \$1;
#X msg 402 155 colour \$1;
#X msg 1440 376 timbre \$1;
#X msg 699 326 pitch \$1;
#X obj 699 264 * 128;
#X obj 853 466 +~;
#X obj 853 405 *~ 15000;
#X obj 700 242 - 63;
#X obj 699 292 + 8252;
#X obj 401 73 r o_colour;
#X obj 487 73 r o_shape;
#X obj 601 74 r o_transpose;
#X obj 938 404 r f_cutoff;
#X obj 1054 403 r f_reson;
#X obj 1054 427 / 100;
#X obj 1054 451 * 3.7;
#X obj 1168 108 / 100;
#X obj 1168 86 r f_env_amt;
#X obj 1440 300 r o_timbre;
#X obj 1440 322 / 100;
#X obj 960 86 r e_attack;
#X obj 960 110 r e_decay;
#X obj 960 134 r e_sustain;
#X obj 960 158 r e_release;
#X obj 402 119 / 100;
#X obj 487 113 / 47;
#X obj 1124 286 adsr 1 10 100 50 500;
#X obj 1253 86 r f_attack;
#X obj 1253 110 r f_decay;
#X obj 1253 134 r f_sustain;
#X obj 1253 158 r f_release;
#X obj 820 120 stripnote;
#X obj 837 182 / 127;
#X obj 1020 359 *~;
#X obj 769 385 *~;
#X obj 1437 191 sig~;
#X obj 1437 219 lop~ 50;
#X obj 1323 270 t b f;
#X obj 1440 346 + 0;
#X obj 750 412 +~;
#X obj 1330 53 inlet timbre;
#X obj 1436 52 inlet pressure;
#X obj 1330 81 / 127;
#X obj 1330 109 / 4;
#X obj 1436 84 / 127;
#X obj 729 73 inlet note;
#X obj 1535 53 inlet pb;
#X obj 693 179 + 0;
#X obj 691 148 t b f;
#X obj 1535 89 - 8192;
#X obj 1537 139 / 8192;
#X obj 1525 192 * 48;
#X connect 0 0 8 0;
#X connect 1 0 0 0;
#X connect 2 1 4 0;
#X connect 2 1 37 0;
#X connect 3 0 0 2;
#X connect 4 0 6 1;
#X connect 4 0 6 0;
#X connect 5 0 0 1;
#X connect 6 0 45 0;
#X connect 7 0 16 1;
#X connect 9 0 18 0;
#X connect 10 0 1 0;
#X connect 11 0 10 0;
#X connect 12 0 10 0;
#X connect 13 0 10 0;
#X connect 14 0 10 0;
#X connect 15 0 19 0;
#X connect 16 0 5 0;
#X connect 17 0 16 0;
#X connect 18 0 15 0;
#X connect 19 0 14 0;
#X connect 20 0 35 0;
#X connect 21 0 36 0;
#X connect 22 0 9 1;
#X connect 23 0 7 0;
#X connect 24 0 25 0;
#X connect 25 0 26 0;
#X connect 26 0 3 0;
#X connect 27 0 44 1;
#X connect 28 0 27 0;
#X connect 29 0 30 0;
#X connect 30 0 49 0;
#X connect 31 0 4 2;
#X connect 32 0 4 3;
#X connect 33 0 4 4;
#X connect 34 0 4 5;
#X connect 35 0 12 0;
#X connect 36 0 11 0;
#X connect 37 0 44 0;
#X connect 38 0 37 2;
#X connect 39 0 37 3;
#X connect 40 0 37 4;
#X connect 41 0 37 5;
#X connect 42 0 58 0;
#X connect 42 1 43 0;
#X connect 43 0 45 1;
#X connect 44 0 17 0;
#X connect 45 0 50 1;
#X connect 46 0 47 0;
#X connect 47 0 50 0;
#X connect 48 0 49 0;
#X connect 48 1 49 1;
#X connect 49 0 13 0;
#X connect 50 0 1 1;
#X connect 51 0 53 0;
#X connect 52 0 55 0;
#X connect 53 0 54 0;
#X connect 54 0 48 0;
#X connect 55 0 46 0;
#X connect 56 0 2 0;
#X connect 56 0 42 0;
#X connect 57 0 60 0;
#X connect 58 0 9 0;
#X connect 59 0 58 0;
#X connect 59 1 58 1;
#X connect 60 0 61 0;
#X connect 61 0 62 0;
#X connect 62 0 59 0;
