#N canvas 623 374 1426 863 10;
#X msg 536 184 mix \$1;
#X msg 721 184 freeze \$1;
#X msg 900 184 trig \$1;
#X msg 1046 184 position \$1;
#X msg 546 398 size \$1;
#X msg 1043 398 pitch \$1;
#X msg 721 398 density \$1;
#X msg 901 398 texture \$1;
#X msg 549 577 spread \$1;
#X msg 719 577 feedback \$1;
#X msg 902 577 reverb \$1;
#X msg 1047 577 mode \$1;
#X msg 719 733 silence \$1;
#X msg 1046 741 lofi \$1;
#X obj 721 157 > 0.5;
#X obj 900 157 > 0.5;
#X obj 1081 714 > 0.5;
#X obj 907 714 > 0.5;
#X obj 719 701 > 0.5;
#X obj 553 714 > 0.5;
#X msg 907 741 mono \$1;
#X msg 553 741 bypass \$1;
#X obj 1043 337 / 64;
#X obj 1043 368 +;
#X obj 1146 337 t b f;
#X obj 536 157 / 100;
#X obj 1046 153 / 100;
#X obj 546 337 / 100;
#X obj 721 338 / 100;
#X obj 901 337 / 100;
#X obj 549 545 / 100;
#X obj 719 545 / 100;
#X obj 902 545 / 100;
#X obj 900 125 +;
#X obj 721 125 +;
#X obj 675 87 tgl 15 0 empty empty empty 17 7 0 10 -262144 -1 -1 0
1;
#X obj 874 87 tgl 15 0 empty empty empty 17 7 0 10 -262144 -1 -1 0
1;
#X obj 749 87 t b f;
#X obj 972 87 t b f;
#X text 648 58 inlet freeze;
#X text 868 58 inlet trig;
#X obj 1144 305 unpack 0 0;
#X obj 60 335 +~;
#X obj 9 432 s~ outL-\$1;
#X obj 93 432 s~ outR-\$1;
#X obj 16 127 r~ inL-\$1;
#X obj 101 127 r~ inR-\$1;
#X obj 16 296 clds~ 524288 262144;
#X obj 174 35 print loaded:clds into \$1, f 12;
#X obj 295 128 r notesIn-\$1;
#X obj 749 59 r clds_freeze-\$1;
#X obj 972 59 r clds_trig-\$1;
#X obj 1046 126 r clds_position-\$1;
#X obj 536 130 r clds_mix-\$1;
#X obj 546 306 r clds_size-\$1;
#X obj 721 306 r clds_density-\$1;
#X obj 901 306 r clds_texture-\$1;
#X obj 1043 306 r clds_pitch-\$1;
#X obj 549 513 r clds_spread-\$1;
#X obj 719 513 r clds_feedback-\$1;
#X obj 902 513 r clds_reverb-\$1;
#X obj 1047 513 r clds_mode-\$1;
#X obj 1046 685 r clds_lofi-\$1;
#X obj 907 687 r clds_mono-\$1;
#X obj 719 669 r clds_silence-\$1;
#X obj 553 686 r clds_bypass-\$1;
#X obj 719 812 s clds_param-\$1;
#X text 903 772 disabled;
#X text 1044 771 disabled;
#X obj 721 457 s clds_param-\$1;
#X obj 719 637 s clds_param-\$1;
#X obj 721 243 s clds_param-\$1;
#X obj 16 88 KontrolModule \$1 clds;
#X obj 58 262 r clds_param-\$1;
#X obj 297 427 s notesOut-\$1;
#X obj 16 9 r loaddefs-\$1;
#X msg 16 58 loaddefinitions \$1;
#X obj 174 9 r loadbang-\$1;
#X obj 174 76 print loading definiton for \$1;
#X obj 16 34 symbol;
#X connect 0 0 71 0;
#X connect 1 0 71 0;
#X connect 2 0 71 0;
#X connect 3 0 71 0;
#X connect 4 0 69 0;
#X connect 5 0 69 0;
#X connect 6 0 69 0;
#X connect 7 0 69 0;
#X connect 8 0 70 0;
#X connect 9 0 70 0;
#X connect 10 0 70 0;
#X connect 11 0 70 0;
#X connect 12 0 66 0;
#X connect 14 0 1 0;
#X connect 15 0 2 0;
#X connect 16 0 13 0;
#X connect 17 0 20 0;
#X connect 18 0 12 0;
#X connect 19 0 21 0;
#X connect 21 0 66 0;
#X connect 22 0 23 0;
#X connect 23 0 5 0;
#X connect 24 0 23 0;
#X connect 24 1 23 1;
#X connect 25 0 0 0;
#X connect 26 0 3 0;
#X connect 27 0 4 0;
#X connect 28 0 6 0;
#X connect 29 0 7 0;
#X connect 30 0 8 0;
#X connect 31 0 9 0;
#X connect 32 0 10 0;
#X connect 33 0 15 0;
#X connect 34 0 14 0;
#X connect 35 0 34 0;
#X connect 36 0 33 0;
#X connect 37 0 34 0;
#X connect 37 1 34 1;
#X connect 38 0 33 0;
#X connect 38 1 33 1;
#X connect 41 1 24 0;
#X connect 42 0 43 0;
#X connect 42 0 44 0;
#X connect 45 0 47 0;
#X connect 47 0 42 0;
#X connect 47 1 42 1;
#X connect 49 0 41 0;
#X connect 49 0 74 0;
#X connect 50 0 37 0;
#X connect 51 0 38 0;
#X connect 52 0 26 0;
#X connect 53 0 25 0;
#X connect 54 0 27 0;
#X connect 55 0 28 0;
#X connect 56 0 29 0;
#X connect 57 0 22 0;
#X connect 58 0 30 0;
#X connect 59 0 31 0;
#X connect 60 0 32 0;
#X connect 61 0 11 0;
#X connect 62 0 16 0;
#X connect 63 0 17 0;
#X connect 64 0 18 0;
#X connect 65 0 19 0;
#X connect 73 0 47 0;
#X connect 75 0 79 0;
#X connect 75 0 78 0;
#X connect 76 0 72 0;
#X connect 77 0 48 0;
#X connect 79 0 76 0;
