#N canvas 160 38 627 498 10;
#X obj 67 336 throw~ outL;
#X obj 167 336 throw~ outR;
#X obj 68 137 r~ inL;
#X obj 123 137 r~ inR;
#X obj 202 137 r rc_amount;
#X obj 123 210 / 100;
#X obj 215 210 / 100;
#X obj 299 137 r rc_depth;
#X obj 86 39 KontrolRack 8000 9000;
#X obj 66 250 rngs_ensemble~;
#X obj 271 38 KontrolModule rngs_ensemble;
#X connect 2 0 9 0;
#X connect 3 0 9 1;
#X connect 4 0 5 0;
#X connect 5 0 9 2;
#X connect 6 0 9 3;
#X connect 7 0 6 0;
#X connect 9 0 0 0;
#X connect 9 1 1 0;
