#N canvas 865 306 818 545 10;
#X obj 67 336 throw~ outL;
#X obj 167 336 throw~ outR;
#X obj 68 137 r~ inL;
#X obj 123 137 r~ inR;
#X obj 202 137 r rc_amount;
#X obj 123 210 / 100;
#X obj 215 210 / 100;
#X obj 299 137 r rc_depth;
#X obj 66 250 rngs_ensemble~;
#N canvas 760 226 816 297 rack 0;
#X obj 38 51 r knob1Raw;
#X msg 38 87 knob1Raw \$1;
#X obj 120 50 r knob2Raw;
#X obj 204 49 r knob3Raw;
#X obj 293 49 r knob4Raw;
#X msg 293 85 knob4Raw \$1;
#X msg 204 85 knob3Raw \$1;
#X msg 120 86 knob2Raw \$1;
#X obj 381 49 r enc;
#X msg 381 85 enc \$1;
#X msg 470 85 encbut \$1;
#X obj 470 49 r encbut;
#X obj 579 48 ctlin;
#X obj 579 86 pack f f;
#X msg 579 109 midiCC \$2 \$1;
#X obj 73 170 KontrolRack 8000 9000;
#X connect 0 0 1 0;
#X connect 1 0 15 0;
#X connect 2 0 7 0;
#X connect 3 0 6 0;
#X connect 4 0 5 0;
#X connect 5 0 15 0;
#X connect 6 0 15 0;
#X connect 7 0 15 0;
#X connect 8 0 9 0;
#X connect 9 0 15 0;
#X connect 10 0 15 0;
#X connect 11 0 10 0;
#X connect 12 0 13 0;
#X connect 12 1 13 1;
#X connect 13 0 14 0;
#X connect 14 0 15 0;
#X restore 87 13 pd rack;
#X obj 380 351 KontrolModule ensemble rngs_ensemble;
#X obj 517 160 loadbang;
#X obj 507 239 t b b;
#X msg 367 280 loadpreset Default;
#X msg 517 280 loadsettings localhost:9000;
#X connect 2 0 8 0;
#X connect 3 0 8 1;
#X connect 4 0 5 0;
#X connect 5 0 8 2;
#X connect 6 0 8 3;
#X connect 7 0 6 0;
#X connect 8 0 0 0;
#X connect 8 1 1 0;
#X connect 11 0 12 0;
#X connect 12 0 13 0;
#X connect 12 1 14 0;
#X connect 13 0 10 0;
#X connect 14 0 10 0;
