#N canvas 353 570 1579 712 10;
#X obj 725 535 bob~;
#X obj 723 439 *~;
#X obj 726 117 unpack 0 0;
#X obj 941 488 sig~;
#X obj 807 288 adsr 1 10 100 50 500;
#X obj 736 494 +~ 100;
#X obj 796 327 *~;
#X obj 938 426 lop~ 5;
#X obj 729 73 inlet;
#X obj 725 580 outlet~;
#X obj 628 159 + 12;
#X obj 682 353 brds~;
#X msg 487 154 shape \$1;
#X msg 402 155 colour \$1;
#X msg 324 319 timbre \$1;
#X msg 699 326 pitch \$1;
#X obj 711 203 * 128;
#X obj 853 466 +~;
#X obj 853 405 *~ 15000;
#X obj 712 181 - 63;
#X obj 711 231 + 8252;
#X obj 401 73 r o_colour;
#X obj 487 73 r o_shape;
#X obj 601 74 r o_transpose;
#X obj 938 404 r f_cutoff;
#X obj 1054 403 r f_reson;
#X obj 1054 427 / 100;
#X obj 1054 451 * 3.7;
#X obj 1168 108 / 100;
#X obj 1168 86 r f_env_amt;
#X obj 324 243 r o_timbre;
#X obj 324 265 / 100;
#X obj 960 86 r e_attack;
#X obj 960 110 r e_decay;
#X obj 960 134 r e_sustain;
#X obj 960 158 r e_release;
#X obj 402 119 / 100;
#X obj 487 113 / 47;
#X obj 1124 286 adsr 1 10 100 50 500;
#X obj 1253 86 r f_attack;
#X obj 1253 110 r f_decay;
#X obj 1253 134 r f_sustain;
#X obj 1253 158 r f_release;
#X obj 820 120 stripnote;
#X obj 837 182 / 127;
#X obj 1020 359 *~;
#X obj 769 385 *~;
#X obj 105 58 inlet tch;
#X obj 105 100 unpack f f f f;
#X obj 114 322 sig~;
#X obj 114 350 lop~ 50;
#X text 200 162 timbre;
#X text 119 157 pressure;
#X text 56 158 pitch;
#X obj 207 213 t b f;
#X obj 207 187 expr ($f1) / 4;
#X obj 324 289 + 0;
#X obj 750 412 +~;
#X connect 0 0 9 0;
#X connect 1 0 0 0;
#X connect 2 1 4 0;
#X connect 2 1 38 0;
#X connect 3 0 0 2;
#X connect 4 0 6 1;
#X connect 4 0 6 0;
#X connect 5 0 0 1;
#X connect 6 0 46 0;
#X connect 7 0 17 1;
#X connect 8 0 2 0;
#X connect 8 0 43 0;
#X connect 10 0 19 0;
#X connect 11 0 1 0;
#X connect 12 0 11 0;
#X connect 13 0 11 0;
#X connect 14 0 11 0;
#X connect 15 0 11 0;
#X connect 16 0 20 0;
#X connect 17 0 5 0;
#X connect 18 0 17 0;
#X connect 19 0 16 0;
#X connect 20 0 15 0;
#X connect 21 0 36 0;
#X connect 22 0 37 0;
#X connect 23 0 10 1;
#X connect 24 0 7 0;
#X connect 25 0 26 0;
#X connect 26 0 27 0;
#X connect 27 0 3 0;
#X connect 28 0 45 1;
#X connect 29 0 28 0;
#X connect 30 0 31 0;
#X connect 31 0 56 0;
#X connect 32 0 4 2;
#X connect 33 0 4 3;
#X connect 34 0 4 4;
#X connect 35 0 4 5;
#X connect 36 0 13 0;
#X connect 37 0 12 0;
#X connect 38 0 45 0;
#X connect 39 0 38 2;
#X connect 40 0 38 3;
#X connect 41 0 38 4;
#X connect 42 0 38 5;
#X connect 43 0 10 0;
#X connect 43 1 44 0;
#X connect 44 0 46 1;
#X connect 45 0 18 0;
#X connect 46 0 57 1;
#X connect 47 0 48 0;
#X connect 48 1 55 0;
#X connect 48 2 49 0;
#X connect 48 3 10 0;
#X connect 49 0 50 0;
#X connect 50 0 57 0;
#X connect 54 0 56 0;
#X connect 54 1 56 1;
#X connect 55 0 54 0;
#X connect 56 0 14 0;
#X connect 57 0 1 1;
