#N canvas 861 202 1426 863 10;
#X obj 36 224 outlet~ outL;
#X obj 114 224 outlet~ outR;
#X obj 34 111 inlet~ inL;
#X obj 115 111 inlet~ inR;
#X msg 311 140 mix \$1;
#X obj 9 78 r clds_param;
#X obj 311 167 s clds_param;
#X obj 509 162 s clds_param;
#X msg 509 135 freeze \$1;
#X obj 688 162 s clds_param;
#X msg 688 135 trig \$1;
#X obj 906 164 s clds_param;
#X msg 906 137 position \$1;
#X obj 321 335 s clds_param;
#X msg 321 304 size \$1;
#X obj 828 366 s clds_param;
#X msg 828 335 pitch \$1;
#X obj 516 335 s clds_param;
#X obj 686 335 s clds_param;
#X obj 318 545 s clds_param;
#X obj 494 545 s clds_param;
#X msg 516 304 density \$1;
#X msg 686 304 texture \$1;
#X msg 318 503 spread \$1;
#X msg 494 503 feedback \$1;
#X obj 688 545 s clds_param;
#X obj 857 503 s clds_param;
#X obj 320 683 s clds_param;
#X obj 494 682 s clds_param;
#X obj 697 682 s clds_param;
#X msg 688 503 reverb \$1;
#X msg 857 461 mode \$1;
#X msg 494 647 silence \$1;
#X obj 853 683 s clds_param;
#X msg 856 647 lofi \$1;
#X obj 509 108 > 0.5;
#X obj 688 108 > 0.5;
#X obj 856 620 > 0.5;
#X obj 697 620 > 0.5;
#X obj 494 620 > 0.5;
#X obj 322 620 > 0.5;
#X msg 697 647 mono \$1;
#X msg 322 647 bypass \$1;
#X obj 828 273 / 64;
#X obj 828 304 +;
#X obj 931 273 t b f;
#X obj 557 17 r clds_freeze;
#X obj 311 113 / 100;
#X obj 768 17 r clds_trig;
#X obj 906 83 r clds_position;
#X obj 906 110 / 100;
#X obj 321 242 r clds_size;
#X obj 321 273 / 100;
#X obj 828 242 r clds_pitch;
#X obj 516 242 r clds_density;
#X obj 516 273 / 100;
#X obj 686 242 r clds_texture;
#X obj 686 273 / 100;
#X obj 318 419 r clds_spread;
#X obj 318 461 / 100;
#X obj 494 419 r clds_feedback;
#X obj 494 461 / 100;
#X obj 688 419 r clds_reverb;
#X obj 688 461 / 100;
#X obj 857 419 r clds_mode;
#X obj 322 593 r clds_bypass;
#X obj 494 593 r clds_silence;
#X obj 697 593 r clds_mono;
#X obj 856 593 r clds_lofi;
#X obj 688 81 +;
#X obj 509 81 +;
#X obj 311 86 r clds_mix;
#X obj 473 57 tgl 15 0 empty empty empty 17 7 0 10 -262144 -1 -1 0
1;
#X obj 658 58 tgl 15 0 empty empty empty 17 7 0 10 -262144 -1 -1 0
1;
#X obj 557 44 t b f;
#X obj 768 44 t b f;
#X obj 189 111 inlet notes;
#X obj 197 225 outlet notes;
#X obj 36 179 clds~ 524288 262144;
#X text 452 24 inlet freeze;
#X text 661 30 inlet trig;
#X obj 929 241 unpack 0 0;
#X obj 254 13 loadbang;
#X obj 257 54 print module:clds into \$1;
#X obj 22 18 KontrolModule module-\$1 clds;
#X connect 2 0 78 0;
#X connect 3 0 78 1;
#X connect 4 0 6 0;
#X connect 5 0 78 0;
#X connect 8 0 7 0;
#X connect 10 0 9 0;
#X connect 12 0 11 0;
#X connect 14 0 13 0;
#X connect 16 0 15 0;
#X connect 21 0 17 0;
#X connect 22 0 18 0;
#X connect 23 0 19 0;
#X connect 24 0 20 0;
#X connect 30 0 25 0;
#X connect 31 0 26 0;
#X connect 32 0 28 0;
#X connect 35 0 8 0;
#X connect 36 0 10 0;
#X connect 37 0 34 0;
#X connect 38 0 41 0;
#X connect 39 0 32 0;
#X connect 40 0 42 0;
#X connect 42 0 27 0;
#X connect 43 0 44 0;
#X connect 44 0 16 0;
#X connect 45 0 44 0;
#X connect 45 1 44 1;
#X connect 46 0 74 0;
#X connect 47 0 4 0;
#X connect 48 0 75 0;
#X connect 49 0 50 0;
#X connect 50 0 12 0;
#X connect 51 0 52 0;
#X connect 52 0 14 0;
#X connect 53 0 43 0;
#X connect 54 0 55 0;
#X connect 55 0 21 0;
#X connect 56 0 57 0;
#X connect 57 0 22 0;
#X connect 58 0 59 0;
#X connect 59 0 23 0;
#X connect 60 0 61 0;
#X connect 61 0 24 0;
#X connect 62 0 63 0;
#X connect 63 0 30 0;
#X connect 64 0 31 0;
#X connect 65 0 40 0;
#X connect 66 0 39 0;
#X connect 67 0 38 0;
#X connect 68 0 37 0;
#X connect 69 0 36 0;
#X connect 70 0 35 0;
#X connect 71 0 47 0;
#X connect 72 0 70 0;
#X connect 73 0 69 0;
#X connect 74 0 70 0;
#X connect 74 1 70 1;
#X connect 75 0 69 0;
#X connect 75 1 69 1;
#X connect 76 0 77 0;
#X connect 76 0 81 0;
#X connect 78 0 0 0;
#X connect 78 1 1 0;
#X connect 81 1 45 0;
#X connect 82 0 83 0;
