#N canvas 366 405 1371 918 10;
#X obj 43 249 rngs~;
#X obj 77 170 r rngs_params;
#X obj 341 278 r rngs_pos;
#X obj 478 520 r rngs_bypass;
#X obj 339 520 r rngs_easter;
#X obj 476 125 r rngs_trans;
#X obj 772 124 r rngs_damp;
#X obj 669 124 r rngs_bright;
#X obj 565 124 r rngs_struct;
#X obj 565 161 / 100;
#X obj 240 240 s rngs_params;
#X obj 565 249 s rngs_params;
#X obj 669 161 / 100;
#X obj 669 249 s rngs_params;
#X obj 772 161 / 100;
#X obj 772 249 s rngs_params;
#X obj 341 315 / 100;
#X obj 341 409 s rngs_params;
#X obj 339 651 s rngs_params;
#X obj 478 651 s rngs_params;
#X msg 240 203 pitch \$1;
#X msg 565 212 structure \$1;
#X msg 669 212 brightness \$1;
#X msg 772 212 damping \$1;
#X msg 341 371 position \$1;
#X msg 478 614 bypass \$1;
#X msg 339 614 easter_egg \$1;
#X obj 474 281 r rngs_poly;
#X obj 577 279 r rngs_model;
#X obj 471 408 s rngs_params;
#X msg 471 370 poly \$1;
#X obj 584 404 s rngs_params;
#X msg 584 366 model \$1;
#X msg 475 213 transpose \$1;
#X obj 475 249 s rngs_params;
#X obj 685 520 r rngs_i_exciter;
#X obj 592 520 r rngs_i_strum;
#X obj 793 520 r rngs_i_note;
#X obj 591 651 s rngs_params;
#X obj 683 650 s rngs_params;
#X obj 793 649 s rngs_params;
#X msg 793 610 gen_note \$1;
#X msg 683 613 gen_exciter \$1;
#X msg 591 614 gen_strum \$1;
#X obj 891 649 s rngs_params;
#X obj 891 520 r rngs_chord;
#X msg 891 608 chord \$1;
#X obj 993 650 s rngs_params;
#X obj 993 521 r rngs_fm;
#X msg 993 609 fm \$1;
#X obj 353 121 > 0;
#X obj 347 241 s rngs_params;
#X msg 347 204 trig \$1;
#X obj 130 82 inlet~ right;
#X obj 37 82 inlet~ left;
#X text 16 268 odd;
#X text 85 264 even;
#X obj 136 542 outlet~ right;
#X obj 38 541 outlet~ left;
#X obj 304 4 inlet notes;
#X obj 304 36 unpack f f;
#X obj 304 70 spigot 0;
#X obj 368 73 > 0;
#X obj 59 315 +~;
#X obj 250 545 outlet notes;
#X obj 454 21 loadbang;
#X obj 457 62 print module:rngs into \$1;
#X obj 38 30 KontrolModule module-\$1 rngs;
#X connect 0 0 63 0;
#X connect 0 1 63 1;
#X connect 1 0 0 0;
#X connect 2 0 16 0;
#X connect 3 0 25 0;
#X connect 4 0 26 0;
#X connect 5 0 33 0;
#X connect 6 0 14 0;
#X connect 7 0 12 0;
#X connect 8 0 9 0;
#X connect 9 0 21 0;
#X connect 12 0 22 0;
#X connect 14 0 23 0;
#X connect 16 0 24 0;
#X connect 20 0 10 0;
#X connect 21 0 11 0;
#X connect 22 0 13 0;
#X connect 23 0 15 0;
#X connect 24 0 17 0;
#X connect 25 0 19 0;
#X connect 26 0 18 0;
#X connect 27 0 30 0;
#X connect 28 0 32 0;
#X connect 30 0 29 0;
#X connect 32 0 31 0;
#X connect 33 0 34 0;
#X connect 35 0 42 0;
#X connect 36 0 43 0;
#X connect 37 0 41 0;
#X connect 41 0 40 0;
#X connect 42 0 39 0;
#X connect 43 0 38 0;
#X connect 45 0 46 0;
#X connect 46 0 44 0;
#X connect 48 0 49 0;
#X connect 49 0 47 0;
#X connect 50 0 52 0;
#X connect 52 0 51 0;
#X connect 54 0 0 0;
#X connect 59 0 60 0;
#X connect 59 0 64 0;
#X connect 60 0 61 0;
#X connect 60 1 61 1;
#X connect 60 1 62 0;
#X connect 61 0 20 0;
#X connect 62 0 50 0;
#X connect 63 0 58 0;
#X connect 63 0 57 0;
#X connect 65 0 66 0;
