#N canvas 429 295 1052 834 10;
#X obj 43 368 throw~ outL;
#X obj 133 368 throw~ outR;
#X obj 42 147 r~ inL;
#X obj 159 145 r~ inR;
#X obj 222 146 r notes;
#N canvas 931 400 1338 779 rack 0;
#X obj 234 137 r knob1Raw;
#X msg 234 173 knob1Raw \$1;
#X obj 316 136 r knob2Raw;
#X obj 400 135 r knob3Raw;
#X obj 489 135 r knob4Raw;
#X msg 489 171 knob4Raw \$1;
#X msg 400 171 knob3Raw \$1;
#X msg 316 172 knob2Raw \$1;
#X obj 577 135 r enc;
#X msg 577 171 enc \$1;
#X msg 666 171 encbut \$1;
#X obj 666 135 r encbut;
#X obj 775 134 ctlin;
#X obj 775 172 pack f f;
#X msg 775 195 midiCC \$2 \$1;
#X obj 168 327 KontrolRack 8000 9000;
#X obj 44 29 loadbang;
#X obj 44 59 t b b;
#X msg 44 87 loadpreset Default;
#X msg 184 87 loadsettings dualm;
#X obj 897 164 routeOSC /key;
#X obj 897 134 r oscIn;
#X msg 897 194 key \$1 \$2;
#X connect 0 0 1 0;
#X connect 1 0 15 0;
#X connect 2 0 7 0;
#X connect 3 0 6 0;
#X connect 4 0 5 0;
#X connect 5 0 15 0;
#X connect 6 0 15 0;
#X connect 7 0 15 0;
#X connect 8 0 9 0;
#X connect 9 0 15 0;
#X connect 10 0 15 0;
#X connect 11 0 10 0;
#X connect 12 0 13 0;
#X connect 12 1 13 1;
#X connect 13 0 14 0;
#X connect 14 0 15 0;
#X connect 16 0 17 0;
#X connect 17 0 18 0;
#X connect 17 1 19 0;
#X connect 18 0 15 0;
#X connect 19 0 15 0;
#X connect 20 0 22 0;
#X connect 21 0 20 0;
#X connect 22 0 15 0;
#X restore 109 18 pd rack;
#X obj 221 370 noteout 1;
#X obj 228 328 unpack 0 0;
#N canvas 1285 549 450 300 module2 0;
#X obj 56 46 inlet~ left;
#X obj 153 46 inlet~ right;
#X obj 58 208 outlet~ left;
#X obj 162 208 outlet~ right;
#X obj 260 46 inlet notes;
#X obj 272 205 outlet notes;
#X obj 128 123 modules/clds \$1;
#X connect 0 0 6 0;
#X connect 1 0 6 1;
#X connect 4 0 6 2;
#X connect 6 0 2 0;
#X connect 6 1 3 0;
#X connect 6 2 5 0;
#X restore 93 240 pd module2 2;
#N canvas 1285 549 450 300 module3 0;
#X obj 56 46 inlet~ left;
#X obj 153 46 inlet~ right;
#X obj 58 208 outlet~ left;
#X obj 162 208 outlet~ right;
#X obj 260 46 inlet notes;
#X obj 272 205 outlet notes;
#X obj 183 120 modules/empty \$1;
#X connect 0 0 6 0;
#X connect 1 0 6 1;
#X connect 4 0 6 2;
#X connect 6 0 2 0;
#X connect 6 1 3 0;
#X connect 6 2 5 0;
#X restore 93 269 pd module3 3;
#N canvas 1285 549 450 300 module4 0;
#X obj 56 46 inlet~ left;
#X obj 153 46 inlet~ right;
#X obj 58 208 outlet~ left;
#X obj 162 208 outlet~ right;
#X obj 260 46 inlet notes;
#X obj 272 205 outlet notes;
#X obj 183 120 modules/empty \$1;
#X connect 0 0 6 0;
#X connect 1 0 6 1;
#X connect 4 0 6 2;
#X connect 6 0 2 0;
#X connect 6 1 3 0;
#X connect 6 2 5 0;
#X restore 92 302 pd module4 4;
#N canvas 921 503 598 454 module1 0;
#X obj 52 45 inlet~ left;
#X obj 153 46 inlet~ right;
#X obj 58 208 outlet~ left;
#X obj 162 208 outlet~ right;
#X obj 260 46 inlet notes;
#X obj 272 205 outlet notes;
#X obj 88 118 modules/rngs \$1;
#X obj 362 130 loadbang;
#X obj 395 190 print \$0;
#X connect 0 0 6 0;
#X connect 1 0 6 1;
#X connect 4 0 6 2;
#X connect 6 0 2 0;
#X connect 6 1 3 0;
#X connect 6 2 5 0;
#X connect 7 0 8 0;
#X restore 93 206 pd module1 1;
#X connect 2 0 11 0;
#X connect 3 0 11 1;
#X connect 4 0 11 2;
#X connect 7 0 6 0;
#X connect 7 1 6 1;
#X connect 8 0 9 0;
#X connect 8 1 9 1;
#X connect 8 2 9 2;
#X connect 9 0 10 0;
#X connect 9 1 10 1;
#X connect 9 2 10 2;
#X connect 10 0 0 0;
#X connect 10 1 1 0;
#X connect 10 2 7 0;
#X connect 11 0 8 0;
#X connect 11 1 8 1;
#X connect 11 2 8 2;
