#N canvas 2367 202 1253 1039 10;
#X obj 600 365 grids, f 38;
#X obj 859 97 vsl 15 128 0 127 0 0 empty empty chaos 0 -10 0 10 -262144
-1 -1 621 1;
#X obj 803 97 vsl 15 128 0 127 0 0 empty empty map_y 0 -10 0 10 -262144
-1 -1 4395 1;
#X obj 731 97 vsl 15 128 0 127 0 0 empty empty map_x 0 -10 0 10 -262144
-1 -1 2073 1;
#X obj 628 97 vsl 15 128 0 100 0 0 empty empty hihat 0 -9 0 10 -262144
-1 -1 8467 1;
#X obj 548 97 vsl 15 128 0 100 0 0 empty empty snare 0 -9 0 10 -262144
-1 -1 4097 1;
#X obj 459 97 vsl 15 128 0 100 0 0 empty empty bass 0 -9 0 10 -262144
-1 -1 3203 1;
#X obj 601 396 bng 15 250 50 0 empty empty empty 17 7 0 10 -262144
-1 -1;
#X obj 655 407 bng 15 250 50 0 empty empty empty 17 7 0 10 -262144
-1 -1;
#X obj 684 405 bng 15 250 50 0 empty empty empty 17 7 0 10 -262144
-1 -1;
#X obj 740 413 bng 15 250 50 0 empty empty empty 17 7 0 10 -262144
-1 -1;
#X obj 781 412 bng 15 250 50 0 empty empty empty 17 7 0 10 -262144
-1 -1;
#X obj 812 420 bng 15 250 50 0 empty empty empty 17 7 0 10 -262144
-1 -1;
#X obj 620 587 efficient-kick;
#X msg 620 557 1;
#X obj 622 666 *~;
#X obj 798 584 efficient-snare;
#X msg 798 554 1;
#X obj 919 584 efficient-fmhh;
#X msg 901 550 1;
#X obj 800 663 *~;
#X obj 921 663 *~;
#X obj 663 635 / 127;
#X obj 976 634 / 127;
#X obj 749 618 / 127;
#X obj 66 135 master-metronome;
#X obj 66 100 tgl 15 0 empty empty empty 17 7 0 10 -262144 -1 -1 1
1;
#X floatatom 175 94 5 0 0 0 - - -, f 5;
#X obj 66 23 loadbang;
#X msg 66 55 1;
#X obj 713 29 r g_mapx;
#X obj 779 29 r g_mapy;
#X obj 447 29 r g_bass;
#X obj 459 244 * 1.27;
#X obj 548 244 * 1.27;
#X obj 527 29 r g_snare;
#X obj 628 244 * 1.27;
#X obj 191 10 r g_tempo;
#N canvas 760 226 816 297 rack 0;
#X obj 38 51 r knob1Raw;
#X msg 38 87 knob1Raw \$1;
#X obj 120 50 r knob2Raw;
#X obj 204 49 r knob3Raw;
#X obj 293 49 r knob4Raw;
#X msg 293 85 knob4Raw \$1;
#X msg 204 85 knob3Raw \$1;
#X msg 120 86 knob2Raw \$1;
#X obj 381 49 r enc;
#X msg 381 85 enc \$1;
#X msg 470 85 encbut \$1;
#X obj 470 49 r encbut;
#X obj 579 48 ctlin;
#X obj 579 86 pack f f;
#X msg 579 109 midiCC \$2 \$1;
#X obj 73 170 KontrolRack 8000 9000;
#X connect 0 0 1 0;
#X connect 1 0 15 0;
#X connect 2 0 7 0;
#X connect 3 0 6 0;
#X connect 4 0 5 0;
#X connect 5 0 15 0;
#X connect 6 0 15 0;
#X connect 7 0 15 0;
#X connect 8 0 9 0;
#X connect 9 0 15 0;
#X connect 10 0 15 0;
#X connect 11 0 10 0;
#X connect 12 0 13 0;
#X connect 12 1 13 1;
#X connect 13 0 14 0;
#X connect 14 0 15 0;
#X restore 35 -73 pd rack;
#X obj 278 624 loadbang;
#X obj 268 703 t b b;
#X msg 128 744 loadpreset Default;
#X obj 157 806 KontrolModule grids grds;
#X msg 268 744 loadsettings grids;
#X obj 612 29 r g_hihat;
#X obj 844 29 r g_chaos;
#X msg 452 541 lp \$1;
#X msg 262 521 time \$1;
#X msg 349 541 diffusion \$1;
#X obj 181 497 / 100;
#X obj 262 477 / 100;
#X obj 349 497 / 100;
#X obj 452 497 / 100;
#X obj 262 433 r r_time;
#X obj 181 433 r r_amount;
#X obj 348 433 r r_diff;
#X obj 454 433 r r_cutoff;
#X obj 686 944 throw~ outL;
#X obj 786 944 throw~ outR;
#X obj 688 885 rngs_reverb~, f 15;
#X connect 0 0 7 0;
#X connect 0 0 22 0;
#X connect 0 1 8 0;
#X connect 0 1 24 0;
#X connect 0 2 9 0;
#X connect 0 2 23 0;
#X connect 0 3 10 0;
#X connect 0 4 11 0;
#X connect 0 5 12 0;
#X connect 1 0 0 6;
#X connect 2 0 0 5;
#X connect 3 0 0 4;
#X connect 4 0 36 0;
#X connect 5 0 34 0;
#X connect 6 0 33 0;
#X connect 7 0 14 0;
#X connect 8 0 17 0;
#X connect 9 0 19 0;
#X connect 13 0 15 0;
#X connect 14 0 13 0;
#X connect 15 0 59 0;
#X connect 15 0 59 1;
#X connect 16 0 20 0;
#X connect 17 0 16 0;
#X connect 18 0 21 0;
#X connect 19 0 18 0;
#X connect 20 0 59 0;
#X connect 20 0 59 1;
#X connect 21 0 59 0;
#X connect 21 0 59 1;
#X connect 22 0 15 1;
#X connect 23 0 21 1;
#X connect 24 0 20 1;
#X connect 25 0 0 0;
#X connect 26 0 25 0;
#X connect 27 0 25 1;
#X connect 28 0 29 0;
#X connect 29 0 26 0;
#X connect 30 0 3 0;
#X connect 31 0 2 0;
#X connect 32 0 6 0;
#X connect 33 0 0 1;
#X connect 34 0 0 2;
#X connect 35 0 5 0;
#X connect 36 0 0 3;
#X connect 37 0 27 0;
#X connect 39 0 40 0;
#X connect 40 0 41 0;
#X connect 40 1 43 0;
#X connect 41 0 42 0;
#X connect 43 0 42 0;
#X connect 44 0 4 0;
#X connect 45 0 1 0;
#X connect 46 0 59 0;
#X connect 47 0 59 0;
#X connect 48 0 59 0;
#X connect 49 0 59 2;
#X connect 50 0 47 0;
#X connect 51 0 48 0;
#X connect 52 0 46 0;
#X connect 53 0 50 0;
#X connect 54 0 49 0;
#X connect 55 0 51 0;
#X connect 56 0 52 0;
#X connect 59 0 57 0;
#X connect 59 1 58 0;
