#N canvas 2667 282 1368 1053 10;
#X obj 456 111 tgl 15 0 empty empty empty 17 7 0 10 -262144 -1 -1 1
1;
#X floatatom 601 95 5 0 0 0 - - -, f 5;
#X text 641 94 dial in bpm;
#X floatatom 545 349 5 0 0 0 - - -, f 5;
#X text 583 349 tempo in bpm;
#N canvas 2333 140 1656 1184 mainmetro 0;
#X obj 280 49 inlet;
#X obj 280 93 metro 50;
#X obj 389 438 + 1, f 5;
#X obj 280 462 f;
#X floatatom 280 581 5 0 0 0 - - -, f 5;
#X obj 265 1067 outlet;
#X msg 565 496 0;
#X obj 350 484 >= 23;
#X obj 350 516 sel 1;
#X obj 408 145 midirealtimein;
#X obj 280 387 spigot 1;
#X obj 408 388 spigot 0;
#X obj 423 300 tgl 15 0 empty empty empty 17 7 0 10 -262144 -1 -1 0
1;
#X obj 333 323 ==;
#X obj 333 349 tgl 15 0 empty empty empty 17 7 0 10 -262144 -1 -1 1
1;
#X obj 461 350 tgl 15 0 empty empty empty 17 7 0 10 -262144 -1 -1 0
1;
#X obj 408 167 sel 248 250 251;
#X obj 580 243 delay 1000;
#X msg 423 241 1;
#X obj 408 190 t b b b b, f 25;
#X msg 580 218 stop;
#X msg 580 267 0;
#X text 67 12 autoswitch between internal and MIDI clock;
#X text 525 144 MIDI 248 = clock \; 250 = start \; 251 = continue.
;
#X obj 325 207 loadbang;
#X msg 325 229 0;
#X msg 1091 201 tempo \$1;
#X floatatom 1002 322 5 0 0 1 beat_time - -, f 5;
#X floatatom 995 357 5 0 0 1 phase - -, f 5;
#X msg 812 311 \; pd dsp 1;
#X floatatom 916 360 5 0 0 1 step - -, f 5;
#X floatatom 1027 299 5 0 0 1 tempo - -, f 5;
#X floatatom 1090 177 5 0 0 2 tempo - -, f 5;
#X floatatom 1154 291 5 0 0 0 - - -, f 5;
#X obj 1154 269 r #abl_link_num_peers;
#X obj 967 431 -;
#X floatatom 967 460 5 0 0 0 - - -, f 5;
#X obj 456 755 outlet tempo;
#N canvas 271 316 186 266 mstobpm 0;
#X obj 37 15 inlet;
#X obj 37 101 timer;
#X obj 37 191 outlet;
#X obj 37 128 expr 60000 / $f1;
#X obj 37 42 sel 0;
#X obj 37 64 t b b;
#X connect 0 0 4 0;
#X connect 1 0 3 0;
#X connect 3 0 2 0;
#X connect 4 0 5 0;
#X connect 5 0 1 0;
#X connect 5 1 1 1;
#X restore 460 710 pd mstobpm;
#X obj 803 548 spigot 0;
#X obj 273 912 spigot 0;
#X obj 321 881 == 0;
#N canvas 938 252 293 319 dialinbpm 0;
#X obj 29 41 inlet;
#X obj 29 72 expr 1000/($f1/60);
#X floatatom 29 121 5 0 0 0 - - -, f 5;
#X obj 29 96 / 24;
#X obj 30 150 outlet;
#X connect 0 0 1 0;
#X connect 1 0 3 0;
#X connect 2 0 4 0;
#X connect 3 0 2 0;
#X restore 495 68 pd dialinbpm;
#X obj 932 487 > 0;
#X obj 493 30 inlet bpm;
#X msg 915 200 connect 1;
#X obj 915 166 loadbang;
#X obj 663 666 s clock-type;
#X obj 556 340 sel 0 1;
#X obj 943 527 sel 1;
#X obj 660 638 symbol;
#X obj 990 594 bang;
#X msg 609 401 symbol Int;
#X msg 720 400 symbol MIDI;
#X msg 890 596 symbol Link;
#X obj 806 65 bng 15 250 50 0 empty empty empty 17 7 0 10 -262144 -1
-1;
#X msg 1182 188 reset 0 4;
#N canvas 593 166 450 300 32nd 0;
#X obj 73 41 inlet;
#X obj 58 168 outlet;
#X obj 73 63 % 3;
#X obj 73 85 sel 0;
#X connect 0 0 2 0;
#X connect 2 0 3 0;
#X connect 3 0 1 0;
#X restore 212 643 pd 32nd;
#X obj 211 690 f;
#X obj 244 717 + 1;
#X obj 224 771 % 32;
#X msg 753 209 resolution 8;
#X obj 916 274 abl_link~ 8 0 4 120;
#X connect 0 0 1 0;
#X connect 1 0 10 0;
#X connect 2 0 3 1;
#X connect 3 0 2 0;
#X connect 3 0 4 0;
#X connect 3 0 7 0;
#X connect 4 0 38 0;
#X connect 4 0 57 0;
#X connect 6 0 3 1;
#X connect 7 0 8 0;
#X connect 8 0 6 0;
#X connect 9 0 16 0;
#X connect 10 0 3 0;
#X connect 11 0 3 0;
#X connect 12 0 13 0;
#X connect 12 0 15 0;
#X connect 12 0 48 0;
#X connect 13 0 14 0;
#X connect 14 0 10 1;
#X connect 15 0 11 1;
#X connect 16 0 19 0;
#X connect 16 1 6 0;
#X connect 16 2 6 0;
#X connect 17 0 21 0;
#X connect 18 0 12 0;
#X connect 19 0 11 0;
#X connect 19 1 17 0;
#X connect 19 2 18 0;
#X connect 19 3 20 0;
#X connect 20 0 17 0;
#X connect 21 0 12 0;
#X connect 24 0 25 0;
#X connect 25 0 12 0;
#X connect 26 0 62 0;
#X connect 28 0 35 0;
#X connect 30 0 35 1;
#X connect 30 0 39 0;
#X connect 32 0 26 0;
#X connect 33 0 43 0;
#X connect 34 0 33 0;
#X connect 35 0 36 0;
#X connect 38 0 37 0;
#X connect 39 0 5 0;
#X connect 40 0 5 0;
#X connect 41 0 40 1;
#X connect 42 0 1 1;
#X connect 43 0 39 1;
#X connect 43 0 41 0;
#X connect 43 0 49 0;
#X connect 44 0 42 0;
#X connect 44 0 32 0;
#X connect 45 0 62 0;
#X connect 46 0 45 0;
#X connect 48 0 52 0;
#X connect 48 1 53 0;
#X connect 49 0 54 0;
#X connect 49 1 51 0;
#X connect 50 0 47 0;
#X connect 51 0 50 0;
#X connect 52 0 50 0;
#X connect 53 0 50 0;
#X connect 54 0 47 0;
#X connect 55 0 45 0;
#X connect 56 0 62 0;
#X connect 57 0 58 0;
#X connect 58 0 59 0;
#X connect 58 0 60 0;
#X connect 59 0 58 1;
#X connect 60 0 40 0;
#X connect 61 0 62 0;
#X connect 62 0 30 0;
#X connect 62 1 28 0;
#X connect 62 2 27 0;
#X connect 62 3 31 0;
#X connect 62 3 42 0;
#X restore 456 192 pd mainmetro;
#X obj 456 75 inlet;
#X obj 601 59 inlet;
#X obj 498 503 i;
#X obj 498 525 change -1;
#X obj 498 465 spigot 1;
#X obj 360 419 outlet;
#X obj 786 435 r clock-type;
#X obj 530 561 pack i s;
#X obj 774 467 t b a;
#X obj 499 626 s screenLine5;
#X msg 499 593 * Clock \$1 BPM \$2 *;
#X connect 0 0 5 0;
#X connect 1 0 5 1;
#X connect 3 0 10 0;
#X connect 5 0 11 0;
#X connect 5 1 3 0;
#X connect 6 0 0 0;
#X connect 7 0 1 0;
#X connect 8 0 9 0;
#X connect 9 0 13 0;
#X connect 10 0 8 0;
#X connect 12 0 14 0;
#X connect 13 0 16 0;
#X connect 14 0 13 0;
#X connect 14 1 13 1;
#X connect 16 0 15 0;
