#N canvas 353 186 684 482 10;
#X obj 96 329 throw~ outL;
#X obj 186 329 throw~ outR;
#X obj 102 150 r~ inL;
#X obj 187 150 r~ inR;
#X obj 363 47 r notes;
#X obj 363 83 unpack f f;
#X obj 363 119 sel 60;
#X obj 363 155 spigot 0;
#X obj 256 172 spigot 0;
#X obj 417 191 sel 61;
#X obj 451 253 > 0;
#X obj 416 289 &;
#X msg 416 253 1;
#X obj 369 336 / 64;
#X obj 369 300 - 72;
#N canvas 213 29 1440 803 clouds 0;
#X obj 22 177 outlet~ outL;
#X obj 142 178 outlet~ outR;
#X obj 35 64 inlet~ inL;
#X obj 108 64 inlet~ inR;
#X msg 279 79 mix \$1;
#X obj 36 39 r clds_param;
#X obj 279 106 s clds_param;
#X obj 410 106 s clds_param;
#X msg 410 79 freeze \$1;
#X obj 534 106 s clds_param;
#X msg 534 79 trig \$1;
#X obj 657 106 s clds_param;
#X msg 657 79 position \$1;
#X obj 289 274 s clds_param;
#X msg 289 243 size \$1;
#X obj 796 305 s clds_param;
#X msg 796 274 pitch \$1;
#X obj 484 274 s clds_param;
#X obj 654 274 s clds_param;
#X obj 286 484 s clds_param;
#X obj 462 484 s clds_param;
#X msg 484 243 density \$1;
#X msg 654 243 texture \$1;
#X msg 286 442 spread \$1;
#X msg 462 442 feedback \$1;
#X obj 656 484 s clds_param;
#X obj 825 442 s clds_param;
#X obj 288 622 s clds_param;
#X obj 462 621 s clds_param;
#X obj 665 621 s clds_param;
#X msg 656 442 reverb \$1;
#X msg 825 400 mode \$1;
#X msg 462 586 silence \$1;
#X obj 821 622 s clds_param;
#X msg 824 586 lofi \$1;
#X obj 410 52 > 0.5;
#X obj 534 52 > 0.5;
#X obj 824 559 > 0.5;
#X obj 665 559 > 0.5;
#X obj 462 559 > 0.5;
#X obj 290 559 > 0.5;
#X msg 665 586 mono \$1;
#X msg 290 586 bypass \$1;
#X obj 796 212 / 64;
#X obj 899 181 inlet note;
#X obj 796 243 +;
#X obj 899 212 t b f;
#X obj 37 132 clds~ \$1 S2;
#X obj 279 25 r clds clds_mix;
#X obj 410 25 r clds_freeze;
#X obj 279 52 / 100;
#X obj 534 25 r clds_trig;
#X obj 657 25 r clds_position;
#X obj 657 52 / 100;
#X obj 289 181 r clds_size;
#X obj 289 212 / 100;
#X obj 796 181 r clds_pitch;
#X obj 484 181 r clds_density;
#X obj 484 212 / 100;
#X obj 654 181 r clds_texture;
#X obj 654 212 / 100;
#X obj 286 358 r clds_spread;
#X obj 286 400 / 100;
#X obj 462 358 r clds_feedback;
#X obj 462 400 / 100;
#X obj 656 358 r clds_reverb;
#X obj 656 400 / 100;
#X obj 825 358 r clds_mode;
#X obj 290 532 r clds_bypass;
#X obj 462 532 r clds_silence;
#X obj 665 532 r clds_mono;
#X obj 824 532 r clds_lofi;
#X obj 116 352 KontrolModule clds;
#X connect 2 0 47 0;
#X connect 3 0 47 1;
#X connect 4 0 6 0;
#X connect 5 0 47 0;
#X connect 8 0 7 0;
#X connect 10 0 9 0;
#X connect 12 0 11 0;
#X connect 14 0 13 0;
#X connect 16 0 15 0;
#X connect 21 0 17 0;
#X connect 22 0 18 0;
#X connect 23 0 19 0;
#X connect 24 0 20 0;
#X connect 30 0 25 0;
#X connect 31 0 26 0;
#X connect 32 0 28 0;
#X connect 35 0 8 0;
#X connect 36 0 10 0;
#X connect 37 0 34 0;
#X connect 38 0 41 0;
#X connect 39 0 32 0;
#X connect 40 0 42 0;
#X connect 42 0 27 0;
#X connect 43 0 45 0;
#X connect 44 0 46 0;
#X connect 45 0 16 0;
#X connect 46 0 45 0;
#X connect 46 1 45 1;
#X connect 47 0 0 0;
#X connect 47 1 1 0;
#X connect 48 0 50 0;
#X connect 49 0 35 0;
#X connect 50 0 4 0;
#X connect 51 0 36 0;
#X connect 52 0 53 0;
#X connect 53 0 12 0;
#X connect 54 0 55 0;
#X connect 55 0 14 0;
#X connect 56 0 43 0;
#X connect 57 0 58 0;
#X connect 58 0 21 0;
#X connect 59 0 60 0;
#X connect 60 0 22 0;
#X connect 61 0 62 0;
#X connect 62 0 23 0;
#X connect 63 0 64 0;
#X connect 64 0 24 0;
#X connect 65 0 66 0;
#X connect 66 0 30 0;
#X connect 67 0 31 0;
#X connect 68 0 40 0;
#X connect 69 0 39 0;
#X connect 70 0 38 0;
#X connect 71 0 37 0;
#X restore 97 215 pd clouds 524288 262144;
#X obj 132 81 KontrolRack 8000 9000;
#X connect 2 0 15 0;
#X connect 3 0 15 1;
#X connect 4 0 5 0;
#X connect 5 0 6 0;
#X connect 5 1 7 1;
#X connect 5 1 8 1;
#X connect 5 1 10 0;
#X connect 6 0 7 0;
#X connect 6 1 9 0;
#X connect 8 0 15 2;
#X connect 9 0 12 0;
#X connect 9 1 14 0;
#X connect 10 0 11 1;
#X connect 12 0 11 0;
#X connect 13 0 8 0;
#X connect 14 0 13 0;
#X connect 15 0 0 0;
#X connect 15 1 1 0;
