#N canvas 319 217 684 482 10;
#X obj 96 329 throw~ outL;
#X obj 186 329 throw~ outR;
#X obj 102 150 r~ inL;
#X obj 153 150 r~ inR;
#X obj 323 7 r notes;
#X obj 323 43 unpack f f;
#X obj 323 79 sel 60;
#X obj 323 115 spigot 0;
#X obj 509 228 spigot 0;
#X obj 424 115 sel 61;
#X obj 462 156 > 0;
#X obj 423 192 &;
#X msg 423 156 1;
#X obj 509 192 / 64;
#X obj 509 156 - 72;
#N canvas 788 389 1440 803 clouds 1;
#X obj 21 224 outlet~ outL;
#X obj 141 225 outlet~ outR;
#X obj 34 111 inlet~ inL;
#X obj 115 111 inlet~ inR;
#X msg 270 127 mix \$1;
#X obj 9 78 r clds_param;
#X obj 270 154 s clds_param;
#X obj 468 149 s clds_param;
#X msg 468 122 freeze \$1;
#X obj 647 149 s clds_param;
#X msg 647 122 trig \$1;
#X obj 865 151 s clds_param;
#X msg 865 124 position \$1;
#X obj 280 322 s clds_param;
#X msg 280 291 size \$1;
#X obj 787 353 s clds_param;
#X msg 787 322 pitch \$1;
#X obj 475 322 s clds_param;
#X obj 645 322 s clds_param;
#X obj 277 532 s clds_param;
#X obj 453 532 s clds_param;
#X msg 475 291 density \$1;
#X msg 645 291 texture \$1;
#X msg 277 490 spread \$1;
#X msg 453 490 feedback \$1;
#X obj 647 532 s clds_param;
#X obj 816 490 s clds_param;
#X obj 279 670 s clds_param;
#X obj 453 669 s clds_param;
#X obj 656 669 s clds_param;
#X msg 647 490 reverb \$1;
#X msg 816 448 mode \$1;
#X msg 453 634 silence \$1;
#X obj 812 670 s clds_param;
#X msg 815 634 lofi \$1;
#X obj 468 95 > 0.5;
#X obj 647 95 > 0.5;
#X obj 815 607 > 0.5;
#X obj 656 607 > 0.5;
#X obj 453 607 > 0.5;
#X obj 281 607 > 0.5;
#X msg 656 634 mono \$1;
#X msg 281 634 bypass \$1;
#X obj 787 260 / 64;
#X obj 890 229 inlet note;
#X obj 787 291 +;
#X obj 890 260 t b f;
#X obj 516 4 r clds_freeze;
#X obj 270 100 / 100;
#X obj 727 4 r clds_trig;
#X obj 865 70 r clds_position;
#X obj 865 97 / 100;
#X obj 280 229 r clds_size;
#X obj 280 260 / 100;
#X obj 787 229 r clds_pitch;
#X obj 475 229 r clds_density;
#X obj 475 260 / 100;
#X obj 645 229 r clds_texture;
#X obj 645 260 / 100;
#X obj 277 406 r clds_spread;
#X obj 277 448 / 100;
#X obj 453 406 r clds_feedback;
#X obj 453 448 / 100;
#X obj 647 406 r clds_reverb;
#X obj 647 448 / 100;
#X obj 816 406 r clds_mode;
#X obj 281 580 r clds_bypass;
#X obj 453 580 r clds_silence;
#X obj 656 580 r clds_mono;
#X obj 815 580 r clds_lofi;
#X obj 629 4 inlet trig;
#X obj 647 68 +;
#X obj 415 4 inlet freeze;
#X obj 468 68 +;
#X obj 516 31 t b i;
#X obj 727 31 t b i;
#X obj 270 73 r clds_mix;
#X obj 36 179 clds~ \$1 \$2;
#X obj 432 44 tgl 15 0 empty empty empty 17 7 0 10 -262144 -1 -1 0
1;
#X obj 617 45 tgl 15 0 empty empty empty 17 7 0 10 -262144 -1 -1 0
1;
#X connect 2 0 77 0;
#X connect 3 0 77 1;
#X connect 4 0 6 0;
#X connect 5 0 77 0;
#X connect 8 0 7 0;
#X connect 10 0 9 0;
#X connect 12 0 11 0;
#X connect 14 0 13 0;
#X connect 16 0 15 0;
#X connect 21 0 17 0;
#X connect 22 0 18 0;
#X connect 23 0 19 0;
#X connect 24 0 20 0;
#X connect 30 0 25 0;
#X connect 31 0 26 0;
#X connect 32 0 28 0;
#X connect 35 0 8 0;
#X connect 36 0 10 0;
#X connect 37 0 34 0;
#X connect 38 0 41 0;
#X connect 39 0 32 0;
#X connect 40 0 42 0;
#X connect 42 0 27 0;
#X connect 43 0 45 0;
#X connect 44 0 46 0;
#X connect 45 0 16 0;
#X connect 46 0 45 0;
#X connect 46 1 45 1;
#X connect 47 0 74 0;
#X connect 48 0 4 0;
#X connect 49 0 75 0;
#X connect 50 0 51 0;
#X connect 51 0 12 0;
#X connect 52 0 53 0;
#X connect 53 0 14 0;
#X connect 54 0 43 0;
#X connect 55 0 56 0;
#X connect 56 0 21 0;
#X connect 57 0 58 0;
#X connect 58 0 22 0;
#X connect 59 0 60 0;
#X connect 60 0 23 0;
#X connect 61 0 62 0;
#X connect 62 0 24 0;
#X connect 63 0 64 0;
#X connect 64 0 30 0;
#X connect 65 0 31 0;
#X connect 66 0 40 0;
#X connect 67 0 39 0;
#X connect 68 0 38 0;
#X connect 69 0 37 0;
#X connect 70 0 79 0;
#X connect 71 0 36 0;
#X connect 72 0 78 0;
#X connect 73 0 35 0;
#X connect 74 0 73 0;
#X connect 74 1 73 1;
#X connect 75 0 71 0;
#X connect 75 1 71 1;
#X connect 76 0 48 0;
#X connect 77 0 0 0;
#X connect 77 1 1 0;
#X connect 78 0 73 0;
#X connect 79 0 71 0;
#X restore 97 265 pd clouds 524288 262144;
#N canvas 760 226 816 297 rack 0;
#X obj 38 51 r knob1Raw;
#X msg 38 87 knob1Raw \$1;
#X obj 120 50 r knob2Raw;
#X obj 204 49 r knob3Raw;
#X obj 293 49 r knob4Raw;
#X msg 293 85 knob4Raw \$1;
#X msg 204 85 knob3Raw \$1;
#X msg 120 86 knob2Raw \$1;
#X obj 381 49 r enc;
#X msg 381 85 enc \$1;
#X msg 470 85 encbut \$1;
#X obj 470 49 r encbut;
#X obj 579 48 ctlin;
#X obj 579 86 pack f f;
#X msg 579 109 midiCC \$2 \$1;
#X obj 73 170 KontrolRack 8000 9000;
#X connect 0 0 1 0;
#X connect 1 0 15 0;
#X connect 2 0 7 0;
#X connect 3 0 6 0;
#X connect 4 0 5 0;
#X connect 5 0 15 0;
#X connect 6 0 15 0;
#X connect 7 0 15 0;
#X connect 8 0 9 0;
#X connect 9 0 15 0;
#X connect 10 0 15 0;
#X connect 11 0 10 0;
#X connect 12 0 13 0;
#X connect 12 1 13 1;
#X connect 13 0 14 0;
#X connect 14 0 15 0;
#X restore 109 18 pd rack;
#X obj 77 51 KontrolModule clouds clds;
#X connect 2 0 15 0;
#X connect 3 0 15 1;
#X connect 4 0 5 0;
#X connect 5 0 6 0;
#X connect 5 1 7 1;
#X connect 5 1 8 1;
#X connect 5 1 10 0;
#X connect 6 0 7 0;
#X connect 6 1 9 0;
#X connect 7 0 15 2;
#X connect 8 0 15 4;
#X connect 9 0 12 0;
#X connect 9 1 14 0;
#X connect 10 0 11 1;
#X connect 11 0 15 3;
#X connect 12 0 11 0;
#X connect 13 0 8 0;
#X connect 14 0 13 0;
#X connect 15 0 0 0;
#X connect 15 1 1 0;
