#N canvas 649 402 783 501 10;
#X obj 93 355 throw~ outL;
#X obj 193 355 throw~ outR;
#X obj 95 247 r~ inL;
#X obj 145 247 r~ inR;
#X obj 95 296 rngs_reverb~, f 15;
#X msg 556 211 lp \$1;
#X msg 366 191 time \$1;
#X msg 453 211 diffusion \$1;
#X obj 285 167 / 100;
#X obj 366 147 / 100;
#X obj 453 167 / 100;
#X obj 556 167 / 100;
#X obj 366 103 r r_time;
#X obj 285 103 r r_amount;
#X obj 452 103 r r_diff;
#X obj 558 103 r r_cutoff;
#N canvas 760 226 816 297 rack 0;
#X obj 38 51 r knob1Raw;
#X msg 38 87 knob1Raw \$1;
#X obj 120 50 r knob2Raw;
#X obj 204 49 r knob3Raw;
#X obj 293 49 r knob4Raw;
#X msg 293 85 knob4Raw \$1;
#X msg 204 85 knob3Raw \$1;
#X msg 120 86 knob2Raw \$1;
#X obj 381 49 r enc;
#X msg 381 85 enc \$1;
#X msg 470 85 encbut \$1;
#X obj 470 49 r encbut;
#X obj 579 48 ctlin;
#X obj 579 86 pack f f;
#X msg 579 109 midiCC \$2 \$1;
#X obj 73 170 KontrolRack 8000 9000;
#X connect 0 0 1 0;
#X connect 1 0 15 0;
#X connect 2 0 7 0;
#X connect 3 0 6 0;
#X connect 4 0 5 0;
#X connect 5 0 15 0;
#X connect 6 0 15 0;
#X connect 7 0 15 0;
#X connect 8 0 9 0;
#X connect 9 0 15 0;
#X connect 10 0 15 0;
#X connect 11 0 10 0;
#X connect 12 0 13 0;
#X connect 12 1 13 1;
#X connect 13 0 14 0;
#X connect 14 0 15 0;
#X restore 83 16 pd rack;
#X obj 457 452 KontrolModule reverb rngs_reverb;
#X obj 560 260 loadbang;
#X obj 550 339 t b b;
#X msg 410 380 loadpreset Default;
#X msg 560 380 loadsettings reverb;
#X connect 2 0 4 0;
#X connect 3 0 4 1;
#X connect 4 0 0 0;
#X connect 4 1 1 0;
#X connect 5 0 4 0;
#X connect 6 0 4 0;
#X connect 7 0 4 0;
#X connect 8 0 4 2;
#X connect 9 0 6 0;
#X connect 10 0 7 0;
#X connect 11 0 5 0;
#X connect 12 0 9 0;
#X connect 13 0 8 0;
#X connect 14 0 10 0;
#X connect 15 0 11 0;
#X connect 18 0 19 0;
#X connect 19 0 20 0;
#X connect 19 1 21 0;
#X connect 20 0 17 0;
#X connect 21 0 17 0;
