#N canvas 138 224 783 501 10;
#X obj 93 355 throw~ outL;
#X obj 193 355 throw~ outR;
#X obj 95 247 r~ inL;
#X obj 145 247 r~ inR;
#X obj 95 296 rngs_reverb~, f 15;
#X msg 556 211 lp \$1;
#X msg 366 191 time \$1;
#X msg 453 211 diffusion \$1;
#X obj 285 167 / 100;
#X obj 366 147 / 100;
#X obj 453 167 / 100;
#X obj 556 167 / 100;
#X obj 366 103 r r_time;
#X obj 285 103 r r_amount;
#X obj 452 103 r r_diff;
#X obj 558 103 r r_cutoff;
#X obj 70 28 KontrolRack 8000 9000;
#X obj 271 28 KontrolModule rngs_reverb;
#X connect 2 0 4 0;
#X connect 3 0 4 1;
#X connect 4 0 0 0;
#X connect 4 1 1 0;
#X connect 5 0 4 0;
#X connect 6 0 4 0;
#X connect 7 0 4 0;
#X connect 8 0 4 2;
#X connect 9 0 6 0;
#X connect 10 0 7 0;
#X connect 11 0 5 0;
#X connect 12 0 9 0;
#X connect 13 0 8 0;
#X connect 14 0 10 0;
#X connect 15 0 11 0;
