#N canvas 158 110 965 710 10;
#X obj 154 639 throw~ outL;
#X obj 246 639 throw~ outR;
#X msg 21 46 \; pd dsp 1;
#X obj 21 11 loadbang;
#X obj 29 347 r wrps_param;
#X obj 140 433 wrps~;
#X obj 222 275 -;
#X obj 371 217 *~;
#X obj 329 142 brds~;
#X obj 221 373 +~;
#X obj 222 217 t b f;
#X obj 222 320 *~;
#X obj 179 561 rngs_reverb~;
#N canvas 258 331 755 353 wrps 0;
#X obj 285 294 s wrps_param;
#X msg 54 162 shape \$1;
#X msg 170 162 algo \$1;
#X msg 263 162 timbre \$1;
#X obj 564 80 inlet note;
#X msg 564 162 note \$1;
#X obj 402 162 outlet mix;
#X obj 564 121 + 1;
#X obj 54 80 r w_shape;
#X obj 54 121 / 100;
#X obj 170 121 / 100;
#X obj 263 121 / 100;
#X obj 402 121 / 100;
#X obj 170 80 r w_algo;
#X obj 263 80 r w_timbre;
#X obj 402 80 r b_mix;
#X connect 1 0 0 0;
#X connect 2 0 0 0;
#X connect 3 0 0 0;
#X connect 4 0 7 0;
#X connect 5 0 0 0;
#X connect 7 0 5 0;
#X connect 8 0 9 0;
#X connect 9 0 1 0;
#X connect 10 0 2 0;
#X connect 11 0 3 0;
#X connect 12 0 6 0;
#X connect 13 0 10 0;
#X connect 14 0 11 0;
#X connect 15 0 12 0;
#X restore 521 171 pd wrps;
#X obj 698 94 r notes;
#X obj 698 123 unpack f f;
#X obj 745 179 > 0;
#X obj 54 494 r rngs_param;
#X obj 329 93 r brds_param;
#N canvas 281 393 607 365 reverb 0;
#X obj 254 239 s rngs_param;
#X msg 300 140 diffusion \$1;
#X msg 193 142 time \$1;
#X obj 51 136 outlet amt;
#X msg 415 140 lp \$1;
#X obj 53 90 / 100;
#X obj 50 31 r r_amt;
#X obj 189 31 r r_time;
#X obj 192 90 / 100;
#X obj 300 29 r r_diff;
#X obj 295 88 / 100;
#X obj 416 29 r r_cutoff;
#X obj 414 88 / 100;
#X connect 1 0 0 0;
#X connect 2 0 0 0;
#X connect 4 0 0 0;
#X connect 5 0 3 0;
#X connect 6 0 5 0;
#X connect 7 0 8 0;
#X connect 8 0 2 0;
#X connect 9 0 10 0;
#X connect 10 0 1 0;
#X connect 11 0 12 0;
#X connect 12 0 4 0;
#X restore 298 492 pd reverb;
#N canvas 283 264 626 428 brds 0;
#X msg 25 148 shape \$1;
#X msg 218 184 timbre \$1;
#X msg 318 308 pitch \$1;
#X obj 248 26 inlet note;
#X obj 317 220 * 128;
#X obj 317 256 + 8252;
#X obj 317 148 +;
#X obj 157 358 s brds_param;
#X msg 125 184 colour \$1;
#X obj 317 184 - 63;
#X obj 32 52 r o_shape;
#X obj 125 112 r o_colour;
#X obj 125 148 / 100;
#X obj 218 112 r o_timbre;
#X obj 218 148 / 100;
#X obj 317 112 r o_transpose;
#X obj 30 100 / 47;
#X connect 0 0 7 0;
#X connect 1 0 7 0;
#X connect 2 0 7 0;
#X connect 3 0 6 0;
#X connect 4 0 5 0;
#X connect 5 0 2 0;
#X connect 6 0 9 0;
#X connect 8 0 7 0;
#X connect 9 0 4 0;
#X connect 10 0 16 0;
#X connect 11 0 12 0;
#X connect 12 0 8 0;
#X connect 13 0 14 0;
#X connect 14 0 1 0;
#X connect 15 0 6 1;
#X connect 16 0 0 0;
#X restore 625 172 pd brds;
#X obj 185 492 *~;
#X obj 229 492 *~;
#X obj 26 433 print warps;
#X obj 57 561 print rngs;
#X obj 399 143 print brds;
#X obj 748 295 tgl 15 0 empty empty empty 17 7 0 10 -262144 -1 -1 0
1;
#X obj 148 161 loadbang;
#X msg 150 217 1;
#N canvas 322 305 670 550 env 0;
#X obj 195 350 adsr 1 10 100 50 500;
#X obj 16 69 inlet gate;
#X obj 223 466 outlet~ env;
#X obj 195 403 *~;
#X obj 116 70 r e_attack;
#X obj 191 67 r e_decay;
#X obj 280 67 r e_sustain;
#X obj 429 67 r e_release;
#X connect 0 0 3 1;
#X connect 0 0 3 0;
#X connect 1 0 0 0;
#X connect 3 0 2 0;
#X connect 4 0 0 2;
#X connect 5 0 0 3;
#X connect 6 0 0 4;
#X connect 7 0 0 5;
#X restore 212 433 pd env;
#X obj 21 220 r~ inR;
#X obj 141 346 r~ inL;
#N canvas 385 354 484 295 extra 0;
#X obj 84 198 s wrps_param;
#X obj 303 125 outlet gate;
#X obj 305 68 > 0.5;
#X msg 81 125 drive1 \$1;
#X msg 202 125 drive2 \$1;
#X obj 82 68 / 100;
#X obj 199 68 / 100;
#X obj 199 28 r w_drive2;
#X obj 82 28 r w_drive1;
#X obj 305 28 r w_gate;
#X connect 2 0 1 0;
#X connect 3 0 0 0;
#X connect 4 0 0 0;
#X connect 5 0 3 0;
#X connect 6 0 4 0;
#X connect 7 0 6 0;
#X connect 8 0 5 0;
#X connect 9 0 2 0;
#X restore 838 132 pd extra;
#X obj 748 237 +;
#X obj 836 179 t b f;
#X obj 748 266 > 0;
#X text 95 319 left = carrier;
#X text 5 162 right = modulator;
#N canvas 760 226 816 297 rack 0;
#X obj 38 51 r knob1Raw;
#X msg 38 87 knob1Raw \$1;
#X obj 120 50 r knob2Raw;
#X obj 204 49 r knob3Raw;
#X obj 293 49 r knob4Raw;
#X msg 293 85 knob4Raw \$1;
#X msg 204 85 knob3Raw \$1;
#X msg 120 86 knob2Raw \$1;
#X obj 381 49 r enc;
#X msg 381 85 enc \$1;
#X msg 470 85 encbut \$1;
#X obj 470 49 r encbut;
#X obj 579 48 ctlin;
#X obj 579 86 pack f f;
#X msg 579 109 midiCC \$2 \$1;
#X obj 73 170 KontrolRack 8000 9000;
#X connect 0 0 1 0;
#X connect 1 0 15 0;
#X connect 2 0 7 0;
#X connect 3 0 6 0;
#X connect 4 0 5 0;
#X connect 5 0 15 0;
#X connect 6 0 15 0;
#X connect 7 0 15 0;
#X connect 8 0 9 0;
#X connect 9 0 15 0;
#X connect 10 0 15 0;
#X connect 11 0 10 0;
#X connect 12 0 13 0;
#X connect 12 1 13 1;
#X connect 13 0 14 0;
#X connect 14 0 15 0;
#X restore 87 13 pd rack;
#X obj 593 586 KontrolModule warps wrps;
#X obj 640 386 loadbang;
#X obj 630 465 t b b;
#X msg 490 506 loadpreset Default;
#X msg 640 506 loadsettings localhost:9000;
#X connect 3 0 2 0;
#X connect 4 0 5 0;
#X connect 4 0 23 0;
#X connect 5 0 21 0;
#X connect 5 1 22 0;
#X connect 6 0 11 1;
#X connect 7 0 9 1;
#X connect 8 0 7 0;
#X connect 9 0 5 1;
#X connect 10 0 6 0;
#X connect 10 1 6 1;
#X connect 11 0 9 0;
#X connect 12 0 0 0;
#X connect 12 1 1 0;
#X connect 13 0 7 1;
#X connect 13 0 10 0;
#X connect 14 0 15 0;
#X connect 15 0 13 0;
#X connect 15 0 20 0;
#X connect 15 1 16 0;
#X connect 16 0 33 0;
#X connect 17 0 12 0;
#X connect 17 0 24 0;
#X connect 18 0 8 0;
#X connect 18 0 25 0;
#X connect 19 0 12 2;
#X connect 21 0 12 0;
#X connect 22 0 12 1;
#X connect 26 0 29 0;
#X connect 27 0 28 0;
#X connect 28 0 6 0;
#X connect 29 0 22 1;
#X connect 29 0 21 1;
#X connect 30 0 11 0;
#X connect 31 0 5 0;
#X connect 32 0 34 0;
#X connect 33 0 35 0;
#X connect 34 0 33 0;
#X connect 34 1 33 1;
#X connect 35 0 26 0;
#X connect 40 0 41 0;
#X connect 41 0 42 0;
#X connect 41 1 43 0;
#X connect 42 0 39 0;
#X connect 43 0 39 0;
