#N canvas 1092 321 1052 834 10;
#X obj 101 626 throw~ outL;
#X obj 191 626 throw~ outR;
#X obj 94 148 r~ inL;
#X obj 153 150 r~ inR;
#X obj 354 13 r notes;
#X obj 354 51 unpack f f;
#X obj 354 85 sel 60;
#X obj 323 115 spigot 0;
#X obj 474 229 spigot 0;
#N canvas 448 226 1338 779 rack 0;
#X obj 234 137 r knob1Raw;
#X msg 234 173 knob1Raw \$1;
#X obj 316 136 r knob2Raw;
#X obj 400 135 r knob3Raw;
#X obj 489 135 r knob4Raw;
#X msg 489 171 knob4Raw \$1;
#X msg 400 171 knob3Raw \$1;
#X msg 316 172 knob2Raw \$1;
#X obj 577 135 r enc;
#X msg 577 171 enc \$1;
#X msg 666 171 encbut \$1;
#X obj 666 135 r encbut;
#X obj 775 134 ctlin;
#X obj 775 172 pack f f;
#X msg 775 195 midiCC \$2 \$1;
#X obj 168 327 KontrolRack 8000 9000;
#X obj 44 29 loadbang;
#X obj 44 59 t b b;
#X msg 44 87 loadpreset Default;
#X msg 184 87 loadsettings dualm;
#X obj 897 164 routeOSC /key;
#X obj 897 134 r oscIn;
#X msg 897 194 key \$1 \$2;
#X connect 0 0 1 0;
#X connect 1 0 15 0;
#X connect 2 0 7 0;
#X connect 3 0 6 0;
#X connect 4 0 5 0;
#X connect 5 0 15 0;
#X connect 6 0 15 0;
#X connect 7 0 15 0;
#X connect 8 0 9 0;
#X connect 9 0 15 0;
#X connect 10 0 15 0;
#X connect 11 0 10 0;
#X connect 12 0 13 0;
#X connect 12 1 13 1;
#X connect 13 0 14 0;
#X connect 14 0 15 0;
#X connect 16 0 17 0;
#X connect 17 0 18 0;
#X connect 17 1 19 0;
#X connect 18 0 15 0;
#X connect 19 0 15 0;
#X connect 20 0 22 0;
#X connect 21 0 20 0;
#X connect 22 0 15 0;
#X restore 109 18 pd rack;
#N canvas 574 158 1175 830 rings 0;
#X obj 41 59 inlet~ in;
#X obj 44 393 outlet~ odd;
#X obj 142 394 outlet~ even;
#X obj 43 249 rngs~;
#X obj 77 170 r rngs_params;
#X obj 341 278 r rngs_pos;
#X obj 478 520 r rngs_bypass;
#X obj 339 520 r rngs_easter;
#X obj 384 115 r rngs_trans;
#X obj 680 114 r rngs_damp;
#X obj 577 114 r rngs_bright;
#X obj 473 114 r rngs_struct;
#X obj 473 151 / 100;
#X obj 296 238 s rngs_params;
#X obj 473 239 s rngs_params;
#X obj 577 151 / 100;
#X obj 577 239 s rngs_params;
#X obj 680 151 / 100;
#X obj 680 239 s rngs_params;
#X obj 341 315 / 100;
#X obj 341 409 s rngs_params;
#X obj 339 651 s rngs_params;
#X obj 478 651 s rngs_params;
#X msg 296 201 pitch \$1;
#X msg 473 202 structure \$1;
#X msg 577 202 brightness \$1;
#X msg 680 202 damping \$1;
#X msg 341 371 position \$1;
#X msg 478 614 bypass \$1;
#X msg 339 614 easter_egg \$1;
#X obj 297 117 inlet note;
#X obj 794 78 inlet gate;
#X obj 474 281 r rngs_poly;
#X obj 577 279 r rngs_model;
#X obj 471 408 s rngs_params;
#X msg 471 370 poly \$1;
#X obj 584 404 s rngs_params;
#X msg 584 366 model \$1;
#X msg 383 203 transpose \$1;
#X obj 383 239 s rngs_params;
#X obj 685 520 r rngs_i_exciter;
#X obj 592 520 r rngs_i_strum;
#X obj 793 520 r rngs_i_note;
#X obj 591 651 s rngs_params;
#X obj 683 650 s rngs_params;
#X obj 793 649 s rngs_params;
#X msg 793 610 gen_note \$1;
#X msg 683 613 gen_exciter \$1;
#X msg 591 614 gen_strum \$1;
#X obj 891 649 s rngs_params;
#X obj 891 520 r rngs_chord;
#X msg 891 608 chord \$1;
#X obj 993 650 s rngs_params;
#X obj 993 521 r rngs_fm;
#X msg 993 609 fm \$1;
#X obj 797 119 > 0;
#X obj 791 239 s rngs_params;
#X msg 791 202 trig \$1;
#X obj 38 30 KontrolModule rings rngs;
#X connect 0 0 3 0;
#X connect 3 0 1 0;
#X connect 3 1 2 0;
#X connect 4 0 3 0;
#X connect 5 0 19 0;
#X connect 6 0 28 0;
#X connect 7 0 29 0;
#X connect 8 0 38 0;
#X connect 9 0 17 0;
#X connect 10 0 15 0;
#X connect 11 0 12 0;
#X connect 12 0 24 0;
#X connect 15 0 25 0;
#X connect 17 0 26 0;
#X connect 19 0 27 0;
#X connect 23 0 13 0;
#X connect 24 0 14 0;
#X connect 25 0 16 0;
#X connect 26 0 18 0;
#X connect 27 0 20 0;
#X connect 28 0 22 0;
#X connect 29 0 21 0;
#X connect 30 0 23 0;
#X connect 31 0 55 0;
#X connect 32 0 35 0;
#X connect 33 0 37 0;
#X connect 35 0 34 0;
#X connect 37 0 36 0;
#X connect 38 0 39 0;
#X connect 40 0 47 0;
#X connect 41 0 48 0;
#X connect 42 0 46 0;
#X connect 46 0 45 0;
#X connect 47 0 44 0;
#X connect 48 0 43 0;
#X connect 50 0 51 0;
#X connect 51 0 49 0;
#X connect 53 0 54 0;
#X connect 54 0 52 0;
#X connect 55 0 57 0;
#X connect 57 0 56 0;
#X restore 103 351 pd rings;
#X obj 109 452 +~;
#X obj 363 222 > 0;
#N canvas 667 405 1440 803 clouds 0;
#X obj 21 224 outlet~ outL;
#X obj 141 225 outlet~ outR;
#X obj 34 111 inlet~ inL;
#X obj 115 111 inlet~ inR;
#X msg 270 127 mix \$1;
#X obj 9 78 r clds_param;
#X obj 270 154 s clds_param;
#X obj 468 149 s clds_param;
#X msg 468 122 freeze \$1;
#X obj 647 149 s clds_param;
#X msg 647 122 trig \$1;
#X obj 865 151 s clds_param;
#X msg 865 124 position \$1;
#X obj 280 322 s clds_param;
#X msg 280 291 size \$1;
#X obj 787 353 s clds_param;
#X msg 787 322 pitch \$1;
#X obj 475 322 s clds_param;
#X obj 645 322 s clds_param;
#X obj 277 532 s clds_param;
#X obj 453 532 s clds_param;
#X msg 475 291 density \$1;
#X msg 645 291 texture \$1;
#X msg 277 490 spread \$1;
#X msg 453 490 feedback \$1;
#X obj 647 532 s clds_param;
#X obj 816 490 s clds_param;
#X obj 279 670 s clds_param;
#X obj 453 669 s clds_param;
#X obj 656 669 s clds_param;
#X msg 647 490 reverb \$1;
#X msg 816 448 mode \$1;
#X msg 453 634 silence \$1;
#X obj 812 670 s clds_param;
#X msg 815 634 lofi \$1;
#X obj 468 95 > 0.5;
#X obj 647 95 > 0.5;
#X obj 815 607 > 0.5;
#X obj 656 607 > 0.5;
#X obj 453 607 > 0.5;
#X obj 281 607 > 0.5;
#X msg 656 634 mono \$1;
#X msg 281 634 bypass \$1;
#X obj 787 260 / 64;
#X obj 890 229 inlet note;
#X obj 787 291 +;
#X obj 890 260 t b f;
#X obj 516 4 r clds_freeze;
#X obj 270 100 / 100;
#X obj 727 4 r clds_trig;
#X obj 865 70 r clds_position;
#X obj 865 97 / 100;
#X obj 280 229 r clds_size;
#X obj 280 260 / 100;
#X obj 787 229 r clds_pitch;
#X obj 475 229 r clds_density;
#X obj 475 260 / 100;
#X obj 645 229 r clds_texture;
#X obj 645 260 / 100;
#X obj 277 406 r clds_spread;
#X obj 277 448 / 100;
#X obj 453 406 r clds_feedback;
#X obj 453 448 / 100;
#X obj 647 406 r clds_reverb;
#X obj 647 448 / 100;
#X obj 816 406 r clds_mode;
#X obj 281 580 r clds_bypass;
#X obj 453 580 r clds_silence;
#X obj 656 580 r clds_mono;
#X obj 815 580 r clds_lofi;
#X obj 629 4 inlet trig;
#X obj 647 68 +;
#X obj 415 4 inlet freeze;
#X obj 468 68 +;
#X obj 270 73 r clds_mix;
#X obj 36 179 clds~ \$1 \$2;
#X obj 432 44 tgl 15 0 empty empty empty 17 7 0 10 -262144 -1 -1 0
1;
#X obj 617 45 tgl 15 0 empty empty empty 17 7 0 10 -262144 -1 -1 0
1;
#X obj 516 31 t b f;
#X obj 727 31 t b f;
#X obj 22 18 KontrolModule clouds clds;
#X connect 2 0 75 0;
#X connect 3 0 75 1;
#X connect 4 0 6 0;
#X connect 5 0 75 0;
#X connect 8 0 7 0;
#X connect 10 0 9 0;
#X connect 12 0 11 0;
#X connect 14 0 13 0;
#X connect 16 0 15 0;
#X connect 21 0 17 0;
#X connect 22 0 18 0;
#X connect 23 0 19 0;
#X connect 24 0 20 0;
#X connect 30 0 25 0;
#X connect 31 0 26 0;
#X connect 32 0 28 0;
#X connect 35 0 8 0;
#X connect 36 0 10 0;
#X connect 37 0 34 0;
#X connect 38 0 41 0;
#X connect 39 0 32 0;
#X connect 40 0 42 0;
#X connect 42 0 27 0;
#X connect 43 0 45 0;
#X connect 44 0 46 0;
#X connect 45 0 16 0;
#X connect 46 0 45 0;
#X connect 46 1 45 1;
#X connect 47 0 78 0;
#X connect 48 0 4 0;
#X connect 49 0 79 0;
#X connect 50 0 51 0;
#X connect 51 0 12 0;
#X connect 52 0 53 0;
#X connect 53 0 14 0;
#X connect 54 0 43 0;
#X connect 55 0 56 0;
#X connect 56 0 21 0;
#X connect 57 0 58 0;
#X connect 58 0 22 0;
#X connect 59 0 60 0;
#X connect 60 0 23 0;
#X connect 61 0 62 0;
#X connect 62 0 24 0;
#X connect 63 0 64 0;
#X connect 64 0 30 0;
#X connect 65 0 31 0;
#X connect 66 0 40 0;
#X connect 67 0 39 0;
#X connect 68 0 38 0;
#X connect 69 0 37 0;
#X connect 70 0 77 0;
#X connect 71 0 36 0;
#X connect 72 0 76 0;
#X connect 73 0 35 0;
#X connect 74 0 48 0;
#X connect 75 0 0 0;
#X connect 75 1 1 0;
#X connect 76 0 73 0;
#X connect 77 0 71 0;
#X connect 78 0 73 0;
#X connect 78 1 73 1;
#X connect 79 0 71 0;
#X connect 79 1 71 1;
#X restore 105 553 pd clouds 524288 262144;
#X connect 2 0 10 0;
#X connect 4 0 5 0;
#X connect 5 0 6 0;
#X connect 5 1 7 1;
#X connect 5 1 8 1;
#X connect 5 1 12 0;
#X connect 6 0 7 0;
#X connect 6 1 8 0;
#X connect 8 0 10 1;
#X connect 10 0 11 0;
#X connect 10 1 11 1;
#X connect 11 0 13 0;
#X connect 11 0 13 1;
#X connect 12 0 10 2;
#X connect 13 0 0 0;
#X connect 13 1 1 0;
